<?xml version="1.0" standalone="no"?>
<!DOCTYPE svg PUBLIC "-//W3C//DTD SVG 1.1//EN" "http://www.w3.org/Graphics/SVG/1.1/DTD/svg11.dtd" >
<svg xmlns="http://www.w3.org/2000/svg" xmlns:xlink="http://www.w3.org/1999/xlink" version="1.1">
<metadata>
Created by FontForge 20170731 at Fri Oct 26 18:51:05 2018
 By Aleksey,,,
Copyright (c) 2018 by deFharo. All rights reserved.
</metadata>
<defs>
<font id="Fragua-Light" horiz-adv-x="440" >
  <font-face 
    font-family="Fragua Light"
    font-weight="300"
    font-stretch="normal"
    units-per-em="1000"
    panose-1="0 0 0 0 0 0 0 0 0 0"
    ascent="800"
    descent="-200"
    x-height="538"
    cap-height="687"
    bbox="-111.692 -190 1562 907"
    underline-thickness="50"
    underline-position="-175"
    unicode-range="U+000D-2122"
  />
<missing-glyph horiz-adv-x="500" 
d="M146 180v357h208v-145h146v-212h-354v-146l-144 146h144zM225 435h49v57h-49v-57z" />
    <glyph glyph-name="percent" unicode="&#x30;&#x2f;&#x30;" horiz-adv-x="860" 
d="M33 540q0 148 149 148h22q148 0 148 -148v-122q0 -148 -148 -148h-22q-149 0 -149 148v122zM198 333q45 0 63.5 18.5t18.5 63.5v128q0 45 -18.5 63.5t-63.5 18.5h-11q-45 0 -63.5 -18.5t-18.5 -63.5v-128q0 -45 18.5 -63.5t63.5 -18.5h11zM574 687q10 0 7 -10l-257 -666
q-4 -11 -16 -11h-32q-11 0 -7 11l256 666q4 10 16 10h33zM496 269q0 148 148 148h23q148 0 148 -148v-122q0 -148 -148 -148h-23q-148 0 -148 148v122zM661 62q45 0 63.5 18.5t18.5 63.5v128q0 45 -18.5 63.5t-63.5 18.5h-11q-45 0 -63.5 -18.5t-18.5 -63.5v-128
q0 -45 18.5 -63.5t63.5 -18.5h11z" />
    <glyph glyph-name="ellipsis" unicode="&#x2e;&#x2e;&#x2e;" horiz-adv-x="652" 
d="M63 82q0 9 9 9h73q9 0 9 -9v-73q0 -9 -9 -9h-73q-9 0 -9 9v73zM280 82q0 9 9 9h73q9 0 9 -9v-73q0 -9 -9 -9h-73q-9 0 -9 9v73zM498 82q0 9 9 9h73q9 0 9 -9v-73q0 -9 -9 -9h-73q-9 0 -9 9v73z" />
    <glyph glyph-name="perthousand" unicode="&#x30;&#x2f;&#x30;&#x30;" horiz-adv-x="1143" 
d="M644 -1q-148 0 -148 148v122q0 148 148 148h23q103 0 134 -70q32 71 134 71h22q148 0 148 -148v-123q0 -148 -148 -148h-22q-103 0 -134 71q-31 -71 -134 -71h-23zM182 270q-149 0 -149 148v122q0 148 149 148h22q148 0 148 -148v-122q0 -148 -148 -148h-22zM858 144
q0 -82 82 -82h12q82 0 82 82v129q0 82 -82 82h-12q-82 0 -82 -82v-129zM105 415q0 -45 18.5 -63.5t63.5 -18.5h11q45 0 63.5 18.5t18.5 63.5v128q0 45 -18.5 63.5t-63.5 18.5h-11q-45 0 -63.5 -18.5t-18.5 -63.5v-128zM568 144q0 -45 18.5 -63.5t63.5 -18.5h11
q45 0 63.5 18.5t18.5 63.5v128q0 45 -18.5 63.5t-63.5 18.5h-11q-45 0 -63.5 -18.5t-18.5 -63.5v-128zM525 677q4 10 16 10h33q10 0 7 -10l-257 -666q-4 -11 -16 -11h-32q-11 0 -7 11z" />
    <glyph glyph-name="uni20BF" unicode="b&#x23;" horiz-adv-x="480" 
d="M435 148q0 -145 -143 -148v-80q0 -11 -12 -11h-40q-12 0 -12 11v80h-59v-80q0 -11 -12 -11h-40q-12 0 -12 11v80h-22q-12 0 -12 12v663q0 12 12 12h22v79q0 12 12 12h40q12 0 12 -12v-79h59v79q0 12 12 12h40q12 0 12 -12v-79q133 -9 133 -148v-63q0 -77 -44 -113
q54 -38 54 -122v-93zM359 246q0 81 -78 82h-134v-264h130q45 0 63.5 18.5t18.5 63.5v100zM349 542q0 45 -18.5 63.5t-63.5 18.5h-120v-235h120q45 0 63.5 18.5t18.5 63.5v71z" />
    <glyph glyph-name="defharo" unicode="pez" horiz-adv-x="500" 
d="M146 180v357h208v-145h146v-212h-354v-146l-144 146h144zM225 435h49v57h-49v-57z" />
    <glyph glyph-name="apple" unicode="a&#x23;" horiz-adv-x="1580" 
d="M551 205q0 -77 78 -77h333q78 0 78 77v130q0 77 -78 77h-333q-78 0 -78 -77v-130zM700 587l-15 -46q-16 -48 -50 -58h354q20 0 38 -3zM366 -150q-14 0 -17.5 3.5t-3.5 17.5v68q0 77 36.5 101t111.5 24h53q-55 16 -76 66l-444 264q-9 5 -7 15l10 37q3 9 14 9h461
q34 27 88 28q-10 2 -15 4l-50 16q-81 27 -54 108l46 139q21 61 70 61q19 0 37 -7l50 -16q82 -27 55 -107l-16 -49l342 -112q5 -3 3 -8l-11 -33l-2 -4q27 -7 46 -25l459 -125q10 -3 10 -13v-38q0 -10 -10 -13l-426 -116q-18 -63 -81 -81h52q66 0 98 -25.5t32 -90.5v-77
q0 -14 -3.5 -17.5t-17.5 -3.5h-95q-14 0 -17.5 3.5t-3.5 17.5v11q0 30 -12.5 38.5t-46.5 8.5h-115q-53 0 -83.5 15.5t-41.5 66.5h-4q-8 -54 -47 -68t-87 -14h-113q-30 0 -43.5 -8.5t-13.5 -37.5v-12q0 -14 -3.5 -17.5t-17.5 -3.5h-96z" />
    <glyph glyph-name="ethereum" unicode="e&#x23;" horiz-adv-x="655" 
d="M580 320l-253 -335l-252 335l252 -124zM327 254l-252 120l252 378l253 -378z" />
    <glyph glyph-name="monero" unicode="m&#x23;" horiz-adv-x="910" 
d="M762 144q-52 -71 -132 -113.5t-175 -42.5t-175 42.5t-132 113.5h142v190l162 -149l161 148v-189h149zM75 369q0 78 30 147t81.5 120.5t120.5 81.5t148 30t148 -30t120.5 -81.5t81.5 -120.5t30 -147q0 -62 -21 -127h-88v345l-274 -258l-275 258v-345h-81q-21 65 -21 127z
" />
    <glyph glyph-name="ripple" unicode="r&#x23;" horiz-adv-x="856" 
d="M462 592q0 66 48 111t112 45q66 0 113 -47t47 -113t-45.5 -112.5t-107.5 -46.5q-38 0 -58 -18t-20 -44q0 -27 19.5 -44.5t57.5 -17.5q62 0 108 -46.5t46 -112.5t-48 -114t-113 -48t-112 48t-47 112q0 45 21 82q10 18 10 34q0 26 -18 45.5t-44 19.5q-36 0 -59 -42
q-20 -35 -57.5 -56.5t-80.5 -21.5q-64 0 -111.5 48t-47.5 114t47.5 114t113.5 48q48 0 81.5 -25.5t62.5 -62.5q20 -33 55 -33q24 0 43.5 18.5t19.5 42.5q0 16 -9 34q-27 47 -27 89z" />
    <glyph glyph-name="neo" unicode="n&#x23;" horiz-adv-x="768" 
d="M407 477l287 114v-438l-287 135v189zM363 477l-288 114v-496l288 -111v493zM385 511l-310 120l310 120l309 -120z" />
    <glyph glyph-name="dcash" unicode="d&#x23;" horiz-adv-x="685" 
d="M197 70h18q75 0 139.5 27t112.5 73.5t75.5 109t27.5 134.5q0 117 -71 183.5t-189 66.5h-19l-11 -68q-1 -10 -11 -10h-56q-10 0 -9 10l22 137h99q147 0 235.5 -85t88.5 -223q0 -94 -33 -172t-91.5 -134.5t-139.5 -87.5t-176 -31h-99l22 137q1 11 11 11h56q10 0 9 -11z
M86 393q1 9 9 9h304q9 0 8 -9l-7 -41q-1 -9 -10 -9h-304q-8 0 -7 9z" />
    <glyph glyph-name="bytecoin" unicode="y&#x23;" horiz-adv-x="480" 
d="M5 211q0 9 9 9h57v262h-57q-9 0 -9 9v36q0 9 9 9h57v139q0 12 12 12h193q149 0 149 -148v-63q0 -77 -44 -113q54 -38 54 -122v-93q0 -148 -149 -148h-203q-12 0 -12 12v154h-57q-9 0 -9 9v36zM359 246q0 81 -78 82h-134v-264h130q45 0 63.5 18.5t18.5 63.5v100zM349 542
q0 45 -18.5 63.5t-63.5 18.5h-120v-235h120q45 0 63.5 18.5t18.5 63.5v71z" />
    <glyph glyph-name="litecoin" unicode="l&#x23;" horiz-adv-x="386" 
d="M335 539q5 5 9 5t8 -5l22 -26q7 -8 -2 -16l-177 -154l-39 -279h211q12 0 10 -12l-6 -40q-1 -12 -13 -12h-275q-12 0 -10 12l36 255l-22 -19q-7 -5 -9 -5t-7 5l-23 27q-7 8 3 15l70 62l45 323q1 12 14 12h52q11 0 10 -12l-35 -247z" />
    <glyph glyph-name="zcash" unicode="z&#x23;" horiz-adv-x="403" 
d="M48 624q-12 0 -12 12v39q0 12 12 12h122v85q0 12 11 12h42q12 0 12 -12v-85h126q12 0 12 -12v-28q0 -22 -10 -39l-259 -544h262q12 0 12 -12v-40q0 -12 -12 -12h-131v-84q0 -12 -12 -12h-42q-11 0 -11 12v84h-133q-12 0 -12 12v30q0 24 9 39l259 543h-245z" />
    <glyph glyph-name=".notdef" horiz-adv-x="500" 
d="M146 180v357h208v-145h146v-212h-354v-146l-144 146h144zM225 435h49v57h-49v-57z" />
    <glyph glyph-name="uni0000" horiz-adv-x="0" 
 />
    <glyph glyph-name="uni0000" horiz-adv-x="0" 
 />
    <glyph glyph-name="uni000D" unicode="&#xd;" horiz-adv-x="250" 
 />
    <glyph glyph-name="space" unicode=" " horiz-adv-x="222" 
 />
    <glyph glyph-name="exclam" unicode="!" horiz-adv-x="333" 
d="M188 190q0 -12 -12 -12h-21q-11 0 -12 12l-19 515q0 12 12 12h59q12 0 12 -12zM121 82q0 9 8 9h73q9 0 9 -9v-73q0 -9 -9 -9h-73q-8 0 -8 9v73z" />
    <glyph glyph-name="quotedbl" unicode="&#x22;" horiz-adv-x="321" 
d="M200 524q-9 0 -9 10v186q0 10 9 10h51q10 0 10 -10v-186q0 -10 -10 -10h-51zM70 524q-10 0 -10 10v186q0 10 10 10h51q10 0 10 -10v-186q0 -10 -10 -10h-51z" />
    <glyph glyph-name="numbersign" unicode="#" horiz-adv-x="483" 
d="M73 452q3 9 11 9h90l65 218q3 8 12 8h42q8 0 6 -8l-65 -218h78l65 218q2 8 11 8h42q9 0 6 -8l-64 -218h94q9 0 7 -9l-14 -39q-2 -9 -11 -9h-91l-35 -121h92q9 0 7 -8l-14 -40q-3 -9 -11 -9h-89l-62 -217q-2 -9 -11 -9h-44q-9 0 -7 9l64 217h-79l-63 -217q-3 -9 -12 -9
h-42q-8 0 -6 9l64 217h-96q-9 0 -6 9l14 40q3 8 11 8h92l35 121h-94q-9 0 -6 9zM183 283h79l36 121h-78z" />
    <glyph glyph-name="dollar" unicode="$" horiz-adv-x="472" 
d="M253 59q45 0 63.5 18.5t18.5 63.5v38q0 58 -43.5 88.5t-96 59.5t-96 70.5t-43.5 120.5v26q0 148 147 148v89q0 12 12 12h42q12 0 12 -12v-90q132 -7 132 -147v-68q0 -12 -12 -12h-51q-12 0 -12 12v71q0 82 -80 82h-34q-81 0 -81 -82v-29q0 -64 44 -96t96.5 -60t96 -66.5
t43.5 -116.5v-36q0 -148 -149 -148h-2v-87q0 -12 -12 -12h-42q-11 0 -11 12v87h-2q-148 0 -148 148v67q0 12 12 12h51q12 0 12 -12v-69q0 -45 18.5 -63.5t63.5 -18.5h51z" />
    <glyph glyph-name="ampersand" unicode="&#x26;" horiz-adv-x="500" 
d="M259 356q0 -12 -12 -12h-28q-45 0 -64 -18.5t-19 -63.5v-117q0 -45 19 -63.5t64 -18.5h32q82 0 82 82l-1 199h-32q-12 0 -12 12v37q0 12 12 12h160q12 0 12 -12v-37q0 -12 -12 -12h-54v-196q0 -149 -148 -149h-49q-149 0 -149 149v108q0 86 52 123q-42 35 -42 113v58
q0 148 149 148h29q148 0 148 -148v-70q0 -12 -11 -12h-50q-12 0 -12 12v72q0 45 -18.5 63.5t-63.5 18.5h-12q-45 0 -64 -18.5t-19 -63.5v-65q0 -45 19 -63.5t64 -18.5h18q12 0 12 -12v-37z" />
    <glyph glyph-name="quotesingle" unicode="'" horiz-adv-x="213" 
d="M81 524q-10 0 -10 9v187q0 10 10 10h51q10 0 10 -10v-187q0 -9 -10 -9h-51z" />
    <glyph glyph-name="parenleft" unicode="(" horiz-adv-x="233" 
d="M143 -173q-51 11 -81.5 48t-30.5 122v567q0 85 30.5 122t81.5 49q3 1 7 1q6 0 12 -9l14 -18q7 -9 -5 -13q-37 -12 -54.5 -42.5t-17.5 -94.5v-556q0 -65 17.5 -95.5t54.5 -41.5q10 -4 5 -14l-14 -18q-7 -9 -11 -9q-2 0 -8 2z" />
    <glyph glyph-name="parenright" unicode=")" horiz-adv-x="233" 
d="M89 -173q-6 -2 -8 -2q-3 0 -11 9l-14 18q-5 10 5 14q37 11 54.5 41.5t17.5 95.5v556q0 64 -17.5 94.5t-54.5 42.5q-12 4 -5 13l14 18q6 9 12 9q4 0 7 -1q51 -12 81.5 -49t30.5 -122v-567q0 -85 -30.5 -122t-81.5 -48z" />
    <glyph glyph-name="asterisk" unicode="*" horiz-adv-x="408" 
d="M204 523l-63 -86q-3 -4 -6 -4t-5 2l-34 25q-7 4 -2 11l62 87l-102 33q-8 4 -5 11l12 39q1 6 5 6t6 -1l102 -31v107q0 8 9 8h42q8 0 8 -8v-108l103 32q2 1 5 1q4 0 5 -6l12 -39q3 -7 -5 -11l-101 -33l62 -87q5 -7 -2 -12l-34 -24q-3 -2 -6 -2t-6 4z" />
    <glyph glyph-name="plus" unicode="+" horiz-adv-x="392" 
d="M29 365q0 13 13 13h119v144q0 13 13 13h44q13 0 13 -13v-144h120q12 0 12 -13v-42q0 -13 -12 -13h-120v-145q0 -13 -13 -13h-44q-13 0 -13 13v145h-119q-13 0 -13 13v42z" />
    <glyph glyph-name="comma" unicode="," horiz-adv-x="217" 
d="M72 0q-9 0 -9 9v73q0 9 9 9h73q8 0 8 -9v-73q0 -39 -21.5 -69t-63.5 -43q-2 -1 -5 -1t-5 6l-8 21q-2 7 5 10q42 17 48 67h-31z" />
    <glyph glyph-name="hyphen" unicode="-" horiz-adv-x="273" 
d="M223 302q11 0 11 -12v-41q0 -11 -11 -11h-173q-11 0 -11 11v41q0 12 11 12h173z" />
    <glyph glyph-name="period" unicode="." horiz-adv-x="217" 
d="M63 82q0 9 9 9h73q9 0 9 -9v-73q0 -9 -9 -9h-73q-9 0 -9 9v73z" />
    <glyph glyph-name="slash" unicode="/" horiz-adv-x="252" 
d="M16 0q-12 0 -9 12l175 706q2 12 14 12h40q12 0 10 -12l-175 -706q-3 -12 -14 -12h-41z" />
    <glyph glyph-name="zero" unicode="0" horiz-adv-x="473" 
d="M47 538q0 151 151 151h77q151 0 151 -151v-389q0 -150 -151 -150h-77q-151 0 -151 150v389zM263 69q44 0 61.5 17.5t17.5 61.5v392q0 43 -17.5 60.5t-61.5 17.5h-53q-44 0 -61.5 -17.5t-17.5 -60.5v-392q0 -44 17.5 -61.5t61.5 -17.5h53z" />
    <glyph glyph-name="one" unicode="1" horiz-adv-x="1580" 
d="M551 205q0 -77 78 -77h333q78 0 78 77v130q0 77 -78 77h-333q-78 0 -78 -77v-130zM700 587l-15 -46q-16 -48 -50 -58h354q20 0 38 -3zM366 -150q-14 0 -17.5 3.5t-3.5 17.5v68q0 77 36.5 101t111.5 24h53q-55 16 -76 66l-444 264q-9 5 -7 15l10 37q3 9 14 9h461
q34 27 88 28q-10 2 -15 4l-50 16q-81 27 -54 108l46 139q21 61 70 61q19 0 37 -7l50 -16q82 -27 55 -107l-16 -49l342 -112q5 -3 3 -8l-11 -33l-2 -4q27 -7 46 -25l459 -125q10 -3 10 -13v-38q0 -10 -10 -13l-426 -116q-18 -63 -81 -81h52q66 0 98 -25.5t32 -90.5v-77
q0 -14 -3.5 -17.5t-17.5 -3.5h-95q-14 0 -17.5 3.5t-3.5 17.5v11q0 30 -12.5 38.5t-46.5 8.5h-115q-53 0 -83.5 15.5t-41.5 66.5h-4q-8 -54 -47 -68t-87 -14h-113q-30 0 -43.5 -8.5t-13.5 -37.5v-12q0 -14 -3.5 -17.5t-17.5 -3.5h-96z" />
    <glyph glyph-name="two" unicode="2" horiz-adv-x="500" 
d="M146 180v357h208v-145h146v-212h-354v-146l-144 146h144zM225 435h49v57h-49v-57z" />
    <glyph glyph-name="three" unicode="3" horiz-adv-x="1580" 
d="M551 205q0 -77 78 -77h333q78 0 78 77v130q0 77 -78 77h-333q-78 0 -78 -77v-130zM700 587l-15 -46q-16 -48 -50 -58h354q20 0 38 -3zM366 -150q-14 0 -17.5 3.5t-3.5 17.5v68q0 77 36.5 101t111.5 24h53q-55 16 -76 66l-444 264q-9 5 -7 15l10 37q3 9 14 9h461
q34 27 88 28q-10 2 -15 4l-50 16q-81 27 -54 108l46 139q21 61 70 61q19 0 37 -7l50 -16q82 -27 55 -107l-16 -49l342 -112q5 -3 3 -8l-11 -33l-2 -4q27 -7 46 -25l459 -125q10 -3 10 -13v-38q0 -10 -10 -13l-426 -116q-18 -63 -81 -81h52q66 0 98 -25.5t32 -90.5v-77
q0 -14 -3.5 -17.5t-17.5 -3.5h-95q-14 0 -17.5 3.5t-3.5 17.5v11q0 30 -12.5 38.5t-46.5 8.5h-115q-53 0 -83.5 15.5t-41.5 66.5h-4q-8 -54 -47 -68t-87 -14h-113q-30 0 -43.5 -8.5t-13.5 -37.5v-12q0 -14 -3.5 -17.5t-17.5 -3.5h-96z" />
    <glyph glyph-name="four" unicode="4" horiz-adv-x="500" 
d="M146 180v357h208v-145h146v-212h-354v-146l-144 146h144zM225 435h49v57h-49v-57z" />
    <glyph glyph-name="five" unicode="5" horiz-adv-x="1580" 
d="M551 205q0 -77 78 -77h333q78 0 78 77v130q0 77 -78 77h-333q-78 0 -78 -77v-130zM700 587l-15 -46q-16 -48 -50 -58h354q20 0 38 -3zM366 -150q-14 0 -17.5 3.5t-3.5 17.5v68q0 77 36.5 101t111.5 24h53q-55 16 -76 66l-444 264q-9 5 -7 15l10 37q3 9 14 9h461
q34 27 88 28q-10 2 -15 4l-50 16q-81 27 -54 108l46 139q21 61 70 61q19 0 37 -7l50 -16q82 -27 55 -107l-16 -49l342 -112q5 -3 3 -8l-11 -33l-2 -4q27 -7 46 -25l459 -125q10 -3 10 -13v-38q0 -10 -10 -13l-426 -116q-18 -63 -81 -81h52q66 0 98 -25.5t32 -90.5v-77
q0 -14 -3.5 -17.5t-17.5 -3.5h-95q-14 0 -17.5 3.5t-3.5 17.5v11q0 30 -12.5 38.5t-46.5 8.5h-115q-53 0 -83.5 15.5t-41.5 66.5h-4q-8 -54 -47 -68t-87 -14h-113q-30 0 -43.5 -8.5t-13.5 -37.5v-12q0 -14 -3.5 -17.5t-17.5 -3.5h-96z" />
    <glyph glyph-name="six" unicode="6" horiz-adv-x="500" 
d="M146 180v357h208v-145h146v-212h-354v-146l-144 146h144zM225 435h49v57h-49v-57z" />
    <glyph glyph-name="seven" unicode="7" horiz-adv-x="1580" 
d="M551 205q0 -77 78 -77h333q78 0 78 77v130q0 77 -78 77h-333q-78 0 -78 -77v-130zM700 587l-15 -46q-16 -48 -50 -58h354q20 0 38 -3zM366 -150q-14 0 -17.5 3.5t-3.5 17.5v68q0 77 36.5 101t111.5 24h53q-55 16 -76 66l-444 264q-9 5 -7 15l10 37q3 9 14 9h461
q34 27 88 28q-10 2 -15 4l-50 16q-81 27 -54 108l46 139q21 61 70 61q19 0 37 -7l50 -16q82 -27 55 -107l-16 -49l342 -112q5 -3 3 -8l-11 -33l-2 -4q27 -7 46 -25l459 -125q10 -3 10 -13v-38q0 -10 -10 -13l-426 -116q-18 -63 -81 -81h52q66 0 98 -25.5t32 -90.5v-77
q0 -14 -3.5 -17.5t-17.5 -3.5h-95q-14 0 -17.5 3.5t-3.5 17.5v11q0 30 -12.5 38.5t-46.5 8.5h-115q-53 0 -83.5 15.5t-41.5 66.5h-4q-8 -54 -47 -68t-87 -14h-113q-30 0 -43.5 -8.5t-13.5 -37.5v-12q0 -14 -3.5 -17.5t-17.5 -3.5h-96z" />
    <glyph glyph-name="eight" unicode="8" horiz-adv-x="500" 
d="M146 180v357h208v-145h146v-212h-354v-146l-144 146h144zM225 435h49v57h-49v-57z" />
    <glyph glyph-name="nine" unicode="9" horiz-adv-x="1580" 
d="M551 205q0 -77 78 -77h333q78 0 78 77v130q0 77 -78 77h-333q-78 0 -78 -77v-130zM700 587l-15 -46q-16 -48 -50 -58h354q20 0 38 -3zM366 -150q-14 0 -17.5 3.5t-3.5 17.5v68q0 77 36.5 101t111.5 24h53q-55 16 -76 66l-444 264q-9 5 -7 15l10 37q3 9 14 9h461
q34 27 88 28q-10 2 -15 4l-50 16q-81 27 -54 108l46 139q21 61 70 61q19 0 37 -7l50 -16q82 -27 55 -107l-16 -49l342 -112q5 -3 3 -8l-11 -33l-2 -4q27 -7 46 -25l459 -125q10 -3 10 -13v-38q0 -10 -10 -13l-426 -116q-18 -63 -81 -81h52q66 0 98 -25.5t32 -90.5v-77
q0 -14 -3.5 -17.5t-17.5 -3.5h-95q-14 0 -17.5 3.5t-3.5 17.5v11q0 30 -12.5 38.5t-46.5 8.5h-115q-53 0 -83.5 15.5t-41.5 66.5h-4q-8 -54 -47 -68t-87 -14h-113q-30 0 -43.5 -8.5t-13.5 -37.5v-12q0 -14 -3.5 -17.5t-17.5 -3.5h-96z" />
    <glyph glyph-name="colon" unicode=":" horiz-adv-x="217" 
d="M63 82q0 9 9 9h73q9 0 9 -9v-73q0 -9 -9 -9h-73q-9 0 -9 9v73zM63 419q0 9 9 9h73q9 0 9 -9v-73q0 -8 -9 -8h-73q-9 0 -9 8v73z" />
    <glyph glyph-name="semicolon" unicode=";" horiz-adv-x="218" 
d="M73 0q-9 0 -9 9v73q0 9 9 9h73q8 0 8 -9v-73q0 -92 -93 -114l-12 35q49 17 55 70h-31zM73 338q-9 0 -9 8v73q0 9 9 9h73q8 0 8 -9v-73q0 -8 -8 -8h-73z" />
    <glyph glyph-name="less" unicode="&#x3c;" horiz-adv-x="289" 
d="M31 241q-8 8 -8 19v18q0 12 8 20l182 184q5 5 8 5q4 0 8 -5l30 -32q8 -8 0 -16l-161 -164l161 -166q8 -8 0 -16l-30 -32q-5 -5 -8 -5q-1 0 -8 5z" />
    <glyph glyph-name="equal" unicode="=" 
d="M29 463q0 12 12 12h358q12 0 12 -12v-44q0 -12 -12 -12h-358q-12 0 -12 12v44zM29 268q0 12 12 12h358q12 0 12 -12v-44q0 -12 -12 -12h-358q-12 0 -12 12v44z" />
    <glyph glyph-name="greater" unicode="&#x3e;" horiz-adv-x="289" 
d="M76 56q-5 -5 -8 -5q-1 0 -8 5l-30 32q-8 8 0 16l161 166l-161 164q-8 8 0 16l30 32q5 5 8 5q4 0 8 -5l182 -184q8 -8 8 -20v-18q0 -11 -8 -19z" />
    <glyph glyph-name="question" unicode="?" horiz-adv-x="393" 
d="M193 634q-82 0 -82 -82v-73q0 -12 -12 -12h-51q-11 0 -11 12v70q0 149 148 149h26q149 0 149 -149v-137q0 -140 -134 -148v-82q0 -11 -12 -11h-51q-12 0 -12 11v133q0 12 12 12h39q82 0 82 82v143q0 82 -82 82h-9zM143 82q0 9 9 9h73q9 0 9 -9v-73q0 -9 -9 -9h-73
q-9 0 -9 9v73z" />
    <glyph glyph-name="at" unicode="@" horiz-adv-x="854" 
d="M812 144q0 -85 -27 -114.5t-100 -29.5h-33q-91 0 -106 65q-49 -35 -95 -55t-88 -20q-100 0 -87 105l49 345q15 109 125 109q71 0 149 -36l2 17q1 8 10 8h53q9 0 7 -8l-56 -404q-11 -71 41 -71h34q37 0 48.5 21t11.5 99v338q0 42 -3 66t-14.5 36t-35.5 15t-66 3h-311
q-42 0 -66 -3t-35.5 -15t-14.5 -36t-3 -66v-489q0 -42 3 -66t14.5 -36t35.5 -15t66 -3h271q9 0 9 -9v-36q0 -9 -9 -9h-309q-83 0 -113.5 30.5t-30.5 113.5v549q0 83 30.5 113.5t113.5 30.5h386q84 0 114 -30.5t30 -113.5v-399zM544 122q0 2 0.5 3.5t0.5 3.5l46 329
q-38 18 -70 25.5t-72 7.5q-28 0 -39 -12.5t-16 -47.5l-45 -324q-5 -34 3 -46.5t34 -12.5q35 0 72 18.5t86 56.5v-1z" />
    <glyph glyph-name="A" unicode="A" horiz-adv-x="472" 
d="M194 676q3 11 15 11h53q12 0 16 -11l180 -664q3 -12 -9 -12h-50q-12 0 -15 12l-48 178h-201l-48 -178q-3 -12 -15 -12h-50q-12 0 -8 12zM320 254l-84 312l-85 -312h169z" />
    <glyph glyph-name="B" unicode="B" horiz-adv-x="480" 
d="M435 148q0 -148 -149 -148h-203q-12 0 -12 12v663q0 12 12 12h193q149 0 149 -148v-63q0 -77 -44 -113q54 -38 54 -122v-93zM359 246q0 81 -78 82h-134v-264h130q45 0 63.5 18.5t18.5 63.5v100zM349 542q0 45 -18.5 63.5t-63.5 18.5h-120v-235h120q45 0 63.5 18.5
t18.5 63.5v71z" />
    <glyph glyph-name="C" unicode="C" horiz-adv-x="505" 
d="M446 221q12 0 12 -12v-67q0 -149 -148 -149h-98q-149 0 -149 149v403q0 148 149 148h98q148 0 148 -148v-69q0 -12 -12 -12h-51q-12 0 -12 12v71q0 45 -18.5 63.5t-63.5 18.5h-80q-45 0 -63.5 -18.5t-18.5 -63.5v-408q0 -82 82 -82h80q82 0 82 82v70q0 12 12 12h51z" />
    <glyph glyph-name="D" unicode="D" horiz-adv-x="523" 
d="M459 148q0 -148 -148 -148h-228q-12 0 -12 12v663q0 12 12 12h228q148 0 148 -148v-391zM384 542q0 82 -82 82h-155v-560h155q45 0 63.5 18.5t18.5 63.5v396z" />
    <glyph glyph-name="E" unicode="E" horiz-adv-x="422" 
d="M71 675q0 12 12 12h287q12 0 12 -12v-40q0 -11 -12 -11h-223v-243h207q12 0 12 -12v-40q0 -11 -12 -11h-207v-254h229q12 0 12 -12v-40q0 -12 -12 -12h-293q-12 0 -12 12v663z" />
    <glyph glyph-name="F" unicode="F" horiz-adv-x="389" 
d="M71 675q0 12 12 12h280q12 0 12 -12v-40q0 -11 -12 -11h-216v-243h198q12 0 12 -12v-40q0 -11 -12 -11h-198v-306q0 -12 -12 -12h-52q-12 0 -12 12v663z" />
    <glyph glyph-name="G" unicode="G" horiz-adv-x="524" 
d="M399 465q-12 0 -12 12v70q0 45 -18.5 63.5t-63.5 18.5h-84q-82 0 -82 -82v-407q0 -82 82 -82h84q82 0 82 82v171h-112q-12 0 -12 12v40q0 12 12 12h176q11 0 11 -12v-220q0 -149 -148 -149h-102q-149 0 -149 149v401q0 148 149 148h102q148 0 148 -148v-67q0 -12 -11 -12
h-52z" />
    <glyph glyph-name="H" unicode="H" horiz-adv-x="522" 
d="M71 675q0 12 12 12h52q12 0 12 -12v-295h228v295q0 12 12 12h51q12 0 12 -12v-663q0 -12 -12 -12h-51q-12 0 -12 12v305h-228v-305q0 -12 -12 -12h-52q-12 0 -12 12v663z" />
    <glyph glyph-name="I" unicode="I" horiz-adv-x="268" 
d="M40 624q-11 0 -11 11v40q0 12 11 12h188q12 0 12 -12v-40q0 -11 -12 -11h-56v-560h56q12 0 12 -12v-40q0 -12 -12 -12h-188q-11 0 -11 12v40q0 12 11 12h56v560h-56z" />
    <glyph glyph-name="J" unicode="J" horiz-adv-x="357" 
d="M128 64q45 0 64 18.5t19 63.5v478h-79q-12 0 -12 11v40q0 12 12 12h142q12 0 12 -12v-527q0 -148 -149 -148h-108q-12 0 -12 12v40q0 12 12 12h99z" />
    <glyph glyph-name="K" unicode="K" horiz-adv-x="467" 
d="M71 675q0 12 12 12h52q12 0 12 -12v-305l209 307q7 10 18 10h61q11 0 5 -10l-220 -324l230 -343q6 -10 -6 -10h-60q-12 0 -19 10l-218 325v-323q0 -12 -12 -12h-52q-12 0 -12 12v663z" />
    <glyph glyph-name="L" unicode="L" horiz-adv-x="386" 
d="M71 675q0 12 12 12h52q12 0 12 -12v-611h211q12 0 12 -12v-40q0 -12 -12 -12h-275q-12 0 -12 12v663z" />
    <glyph glyph-name="M" unicode="M" horiz-adv-x="647" 
d="M307 0q-12 0 -15 12l-145 463v-463q0 -12 -12 -12h-52q-12 0 -12 12v663q0 12 12 12h56q12 0 15 -11l170 -544l169 544q4 11 15 11h56q12 0 12 -12v-663q0 -12 -12 -12h-52q-11 0 -11 12v464l-145 -464q-4 -12 -15 -12h-34z" />
    <glyph glyph-name="N" unicode="N" horiz-adv-x="532" 
d="M71 675q0 12 12 12h53q12 0 16 -10l233 -514v512q0 12 12 12h51q12 0 12 -12v-663q0 -12 -12 -12h-52q-12 0 -17 11l-232 513v-512q0 -12 -12 -12h-52q-12 0 -12 12v663z" />
    <glyph glyph-name="O" unicode="O" horiz-adv-x="543" 
d="M63 544q0 148 149 148h120q148 0 148 -148v-401q0 -148 -148 -148h-120q-149 0 -149 148v401zM322 59q45 0 63.5 18.5t18.5 63.5v406q0 45 -18.5 63.5t-63.5 18.5h-101q-82 0 -82 -82v-406q0 -45 18.5 -63.5t63.5 -18.5h101z" />
    <glyph glyph-name="P" unicode="P" 
d="M147 12q0 -12 -12 -12h-52q-12 0 -12 12v663q0 12 12 12h184q149 0 149 -148v-88q0 -149 -149 -149h-120v-290zM340 542q0 45 -18.5 63.5t-63.5 18.5h-111v-258h111q45 0 63.5 18.5t18.5 63.5v94z" />
    <glyph glyph-name="Q" unicode="Q" horiz-adv-x="543" 
d="M212 -6q-149 0 -149 149v401q0 148 149 148h120q148 0 148 -148v-401q0 -68 -32 -106l34 -29q10 -7 2 -16l-35 -36q-4 -5 -8 -5q-3 0 -8 5l-43 45q-24 -7 -58 -7h-120zM139 140q0 -82 82 -82h101h14l-61 65q-7 9 0 17l14 16q7 7 9 7t9 -5l85 -73q12 20 12 55v407
q0 45 -18.5 63.5t-63.5 18.5h-101q-82 0 -82 -82v-407z" />
    <glyph glyph-name="R" unicode="R" horiz-adv-x="468" 
d="M362 0q-12 0 -16 11l-105 292h-94v-291q0 -12 -12 -12h-52q-12 0 -12 12v663q0 12 12 12h182q148 0 148 -148v-87q0 -121 -99 -144l109 -297q3 -11 -9 -11h-52zM338 542q0 82 -82 82h-109v-257h109q45 0 63.5 18.5t18.5 63.5v93z" />
    <glyph glyph-name="S" unicode="S" horiz-adv-x="456" 
d="M335 179q0 58 -43.5 88.5t-96 59.5t-96 70.5t-43.5 120.5v26q0 148 148 148h48q149 0 149 -148v-68q0 -12 -12 -12h-51q-12 0 -12 12v71q0 82 -80 82h-34q-81 0 -81 -82v-29q0 -64 44 -96t96.5 -60t96 -66.5t43.5 -116.5v-36q0 -148 -149 -148h-69q-148 0 -148 148v67
q0 12 12 12h51q12 0 12 -12v-69q0 -45 18.5 -63.5t63.5 -18.5h51q45 0 63.5 18.5t18.5 63.5v38z" />
    <glyph glyph-name="T" unicode="T" horiz-adv-x="398" 
d="M374 687q11 0 11 -12v-40q0 -11 -11 -11h-137v-612q0 -12 -12 -12h-52q-12 0 -12 12v612h-136q-12 0 -12 11v40q0 12 12 12h349z" />
    <glyph glyph-name="U" unicode="U" horiz-adv-x="511" 
d="M433 687q12 0 12 -12v-532q0 -149 -149 -149h-81q-148 0 -148 149v532q0 12 11 12h52q12 0 12 -12v-535q0 -82 82 -82h63q45 0 63.5 18.5t18.5 63.5v535q0 12 12 12h52z" />
    <glyph glyph-name="V" unicode="V" horiz-adv-x="442" 
d="M11 676q-4 11 8 11h50q12 0 15 -12l137 -538l136 538q4 12 16 12h50q11 0 8 -11l-171 -664q-3 -12 -15 -12h-48q-12 0 -16 12z" />
    <glyph glyph-name="W" unicode="W" horiz-adv-x="660" 
d="M12 675q-2 12 9 12h49q12 0 14 -12l115 -509l99 510q2 11 14 11h36q12 0 15 -11l99 -508l114 507q2 12 14 12h48q12 0 10 -12l-151 -663q-2 -12 -14 -12h-42q-12 0 -14 12l-97 493l-96 -493q-2 -12 -14 -12h-43q-12 0 -15 12z" />
    <glyph glyph-name="X" unicode="X" horiz-adv-x="436" 
d="M218 431l117 245q5 11 16 11h56q11 0 7 -10l-156 -322l166 -344q5 -11 -7 -11h-55q-11 0 -17 11l-127 268l-127 -268q-6 -11 -17 -11h-55q-12 0 -7 11l166 344l-155 322q-5 10 7 10h55q12 0 16 -11z" />
    <glyph glyph-name="Y" unicode="Y" horiz-adv-x="419" 
d="M172 295l-163 382q-5 10 7 10h54q12 0 16 -11l124 -296l123 296q5 11 16 11h54q12 0 8 -10l-163 -382v-283q0 -12 -12 -12h-52q-12 0 -12 12v283z" />
    <glyph glyph-name="Z" unicode="Z" horiz-adv-x="403" 
d="M36 675q0 12 12 12h313q12 0 12 -12v-28q0 -22 -10 -39l-259 -544h262q12 0 12 -12v-40q0 -12 -12 -12h-329q-12 0 -12 12v30q0 24 9 39l259 543h-245q-12 0 -12 12v39z" />
    <glyph glyph-name="bracketleft" unicode="[" horiz-adv-x="232" 
d="M49 722q0 12 12 12h128q12 0 12 -12v-35q0 -12 -12 -12h-70v-780h70q12 0 12 -12v-36q0 -11 -12 -11h-128q-12 0 -12 11v875z" />
    <glyph glyph-name="backslash" unicode="\" horiz-adv-x="227" 
d="M183 0q-11 0 -14 12l-175 706q-2 12 10 12h40q11 0 14 -12l175 -706q3 -12 -9 -12h-41z" />
    <glyph glyph-name="bracketright" unicode="]" horiz-adv-x="232" 
d="M183 -153q0 -11 -12 -11h-128q-12 0 -12 11v36q0 12 12 12h70v780h-70q-12 0 -12 12v35q0 12 12 12h128q12 0 12 -12v-875z" />
    <glyph glyph-name="asciicircum" unicode="^" horiz-adv-x="458" 
d="M253 703q10 0 13 -9l130 -392q3 -9 -7 -9h-53q-9 0 -12 9l-96 298l-94 -298q-2 -9 -12 -9h-53q-10 0 -7 9l131 392q3 9 12 9h48z" />
    <glyph glyph-name="underscore" unicode="_" horiz-adv-x="426" 
d="M9 -121q-9 0 -9 8v37q0 9 9 9h408q9 0 9 -9v-37q0 -8 -9 -8h-408z" />
    <glyph glyph-name="grave" unicode="`" horiz-adv-x="278" 
d="M193 606q-3 -4 -5 -4t-4 1l-169 90q-8 5 -4 11l29 49q3 6 6 6q2 0 6 -3l157 -112q5 -4 1 -9z" />
    <glyph glyph-name="a" unicode="a" horiz-adv-x="437" 
d="M314 0q-8 0 -8 9v50q-73 -69 -149 -69q-101 0 -101 107v121q0 109 104 109q78 0 146 -26v113q0 40 -15 55.5t-57 15.5h-34q-41 0 -57 -15.5t-16 -55.5v-23q0 -9 -9 -9h-51q-9 0 -9 9v23q0 129 129 129h60q129 0 129 -129v-405q0 -9 -9 -9h-53zM306 245q-29 14 -58 19.5
t-76 5.5q-26 0 -36 -11.5t-10 -46.5v-104q0 -34 10 -47t36 -13q59 0 134 78v119z" />
    <glyph glyph-name="b" unicode="b" horiz-adv-x="460" 
d="M401 97q0 -107 -101 -107q-76 0 -163 69v-50q0 -9 -8 -9h-53q-9 0 -9 9v699q0 9 9 9h53q8 0 8 -9v-195q83 36 155 36q109 0 109 -109v-343zM284 491q-41 0 -73 -7.5t-74 -25.5v-335q85 -75 148 -75q26 0 36 13t10 48v322q0 35 -9.5 47.5t-37.5 12.5z" />
    <glyph glyph-name="c" unicode="c" horiz-adv-x="422" 
d="M365 169q9 0 9 -9v-36q0 -129 -129 -129h-59q-129 0 -129 129v290q0 129 129 129h59q129 0 129 -129v-36q0 -9 -9 -9h-51q-8 0 -8 9v36q0 40 -15.5 55.5t-56.5 15.5h-35q-42 0 -56.5 -15.5t-14.5 -55.5v-289q0 -41 14.5 -56.5t56.5 -15.5h35q41 0 56.5 15.5t15.5 56.5v35
q0 9 8 9h51z" />
    <glyph glyph-name="d" unicode="d" horiz-adv-x="460" 
d="M322 59q-85 -69 -162 -69q-102 0 -102 107v343q0 109 110 109q72 0 154 -36v195q0 9 9 9h53q9 0 9 -9v-699q0 -9 -9 -9h-53q-9 0 -9 9v50zM175 48q35 0 69 18.5t78 56.5v335q-41 18 -73.5 25.5t-72.5 7.5q-28 0 -37.5 -12.5t-9.5 -47.5v-322q0 -35 10 -48t36 -13z" />
    <glyph glyph-name="e" unicode="e" horiz-adv-x="441" 
d="M387 283q0 -31 -7.5 -38.5t-38.5 -7.5h-214v-112q0 -41 15 -56t56 -15h49q41 0 56.5 15t15.5 56v14q0 9 8 9h51q9 0 9 -9v-21q0 -123 -123 -123h-85q-123 0 -123 123v302q0 123 123 123h85q123 0 123 -123v-137zM198 485q-41 0 -56 -15t-15 -56v-121h190v121q0 41 -15 56
t-56 15h-48z" />
    <glyph glyph-name="f" unicode="f" horiz-adv-x="237" 
d="M140 9q0 -9 -9 -9h-53q-9 0 -9 9v472h-46q-9 0 -9 9v40q0 8 9 8h46v57q0 69 33.5 98t102.5 29h13q9 0 9 -9v-39q0 -9 -9 -9q-44 0 -61 -12.5t-17 -56.5v-58h87q8 0 8 -8v-40q0 -9 -8 -9h-87v-472z" />
    <glyph glyph-name="g" unicode="g" horiz-adv-x="455" 
d="M184 -92q48 0 75 9.5t40.5 26t16.5 38t3 45.5v38q-79 -69 -159 -69q-102 0 -102 107v337q0 109 110 109q72 0 151 -36v18q0 7 8 7h53q9 0 9 -7v-504q0 -38 -8 -70.5t-30 -56t-61.5 -37t-102.5 -13.5h-75q-9 0 -9 9v40q0 9 9 9h72zM175 54q64 0 144 74v330q-69 33 -143 33
q-28 0 -37.5 -12.5t-9.5 -47.5v-316q0 -35 10 -48t36 -13z" />
    <glyph glyph-name="h" unicode="h" horiz-adv-x="452" 
d="M76 0q-9 0 -9 9v699q0 9 9 9h53q8 0 8 -9v-195q78 36 146 36q108 0 108 -110v-430q0 -9 -9 -9h-53q-8 0 -8 9v418q0 36 -10 48.5t-37 12.5q-38 0 -68.5 -7.5t-68.5 -26.5v-445q0 -9 -8 -9h-53z" />
    <glyph glyph-name="i" unicode="i" horiz-adv-x="201" 
d="M74 0q-9 0 -9 9v521q0 8 9 8h53q9 0 9 -8v-521q0 -9 -9 -9h-53zM53 679q0 8 9 8h76q8 0 8 -8v-67q0 -8 -8 -8h-76q-9 0 -9 8v67z" />
    <glyph glyph-name="j" unicode="j" horiz-adv-x="202" 
d="M-35 -150q-9 0 -9 9v40q0 9 9 9h29q40 0 55.5 15.5t15.5 55.5v551q0 8 9 8h53q9 0 9 -8v-551q0 -129 -129 -129h-42zM53 679q0 8 8 8h76q8 0 8 -8v-67q0 -8 -8 -8h-76q-8 0 -8 8v67z" />
    <glyph glyph-name="k" unicode="k" horiz-adv-x="397" 
d="M137 302l170 229q5 7 14 7h61q9 0 4 -7l-137 -184l140 -339q2 -8 -6 -8h-53q-9 0 -12 8l-115 275l-66 -91v-183q0 -9 -8 -9h-53q-9 0 -9 9v699q0 9 9 9h53q8 0 8 -9v-406z" />
    <glyph glyph-name="l" unicode="l" horiz-adv-x="204" 
d="M76 0q-9 0 -9 9v699q0 9 9 9h53q8 0 8 -9v-699q0 -9 -8 -9h-53z" />
    <glyph glyph-name="m" unicode="m" horiz-adv-x="660" 
d="M64 530q0 8 9 8h53q9 0 9 -8v-16q66 35 127 35q65 0 88 -35q71 35 139 35q60 0 85 -25.5t25 -84.5v-430q0 -9 -8 -9h-53q-9 0 -9 9v421q0 37 -11 49t-49 12q-27 0 -51 -6t-51 -22q1 -7 1 -24v-430q0 -9 -9 -9h-53q-9 0 -9 9v421q0 36 -9.5 48.5t-36.5 12.5
q-35 0 -60.5 -8t-55.5 -28v-446q0 -9 -9 -9h-53q-9 0 -9 9v521z" />
    <glyph glyph-name="n" unicode="n" horiz-adv-x="449" 
d="M327 0q-9 0 -9 9v421q0 36 -9.5 48.5t-36.5 12.5q-39 0 -69 -7.5t-68 -26.5v-448q0 -9 -9 -9h-53q-9 0 -9 9v521q0 8 9 8h53q9 0 9 -8v-17q77 36 146 36q108 0 108 -110v-430q0 -9 -9 -9h-53z" />
    <glyph glyph-name="o" unicode="o" horiz-adv-x="450" 
d="M252 53q40 0 55.5 15.5t15.5 56.5v289q0 40 -15.5 55.5t-55.5 15.5h-54q-40 0 -55.5 -15.5t-15.5 -55.5v-289q0 -41 15.5 -56.5t55.5 -15.5h54zM56 414q0 129 130 129h78q130 0 130 -129v-290q0 -129 -130 -129h-78q-130 0 -130 129v290z" />
    <glyph glyph-name="p" unicode="p" horiz-adv-x="460" 
d="M401 98q0 -107 -101 -107q-78 0 -163 69v-201q0 -9 -8 -9h-53q-9 0 -9 9v671q0 8 9 8h53q8 0 8 -8v-17q84 36 155 36q109 0 109 -109v-342zM284 491q-41 0 -73 -7.5t-74 -25.5v-335q86 -74 148 -74q26 0 36 13t10 48v321q0 35 -9.5 47.5t-37.5 12.5z" />
    <glyph glyph-name="q" unicode="q" horiz-adv-x="460" 
d="M322 60q-84 -69 -162 -69q-102 0 -102 107v342q0 109 109 109q73 0 155 -36v17q0 8 9 8h53q9 0 9 -8v-671q0 -9 -9 -9h-53q-9 0 -9 9v201zM175 49q63 0 147 74v335q-41 18 -73.5 25.5t-72.5 7.5q-28 0 -37.5 -12.5t-9.5 -47.5v-321q0 -35 10 -48t36 -13z" />
    <glyph glyph-name="r" unicode="r" horiz-adv-x="279" 
d="M126 538q9 0 9 -8v-21q68 39 140 39q9 0 9 -8v-41q0 -9 -15 -9q-65 0 -134 -40v-441q0 -9 -9 -9h-53q-9 0 -9 9v521q0 8 9 8h53z" />
    <glyph glyph-name="s" unicode="s" horiz-adv-x="386" 
d="M275 133q0 49 -34.5 74.5t-76.5 49.5t-76.5 59t-34.5 104q0 123 131 123h30q129 0 129 -129v-38q0 -9 -9 -9h-50q-9 0 -9 9v38q0 41 -15.5 56t-55.5 15h-9q-42 0 -57.5 -13.5t-15.5 -51.5q0 -51 35 -77t76.5 -50.5t76.5 -58.5t35 -101q0 -138 -129 -138h-46
q-129 0 -129 129v39q0 9 9 9h50q9 0 9 -9v-38q0 -41 15.5 -56.5t55.5 -15.5h24q41 0 56 17t15 63z" />
    <glyph glyph-name="t" unicode="t" horiz-adv-x="245" 
d="M69 538v88q0 9 9 11l53 13h4q5 0 5 -8v-104h86q8 0 8 -8v-40q0 -9 -8 -9h-86v-355q0 -39 14.5 -55t51.5 -16h8q9 0 9 -9v-41q0 -9 -9 -9h-16q-129 0 -129 129v356h-48q-9 0 -9 9v40q0 8 9 8h48z" />
    <glyph glyph-name="u" unicode="u" 
d="M305 530q0 8 9 8h53q9 0 9 -8v-521q0 -9 -9 -9h-53q-9 0 -9 9v51q-70 -69 -144 -69q-101 0 -101 107v432q0 8 9 8h53q9 0 9 -8v-420q0 -35 9.5 -48t33.5 -13q35 0 65 20t66 59v402z" />
    <glyph glyph-name="v" unicode="v" horiz-adv-x="362" 
d="M7 530q-2 8 7 8h52q8 0 11 -8l104 -410l104 410q2 8 11 8h52q9 0 7 -8l-136 -521q-2 -9 -11 -9h-54q-9 0 -12 9z" />
    <glyph glyph-name="w" unicode="w" horiz-adv-x="568" 
d="M305 538q9 0 10 -8l83 -383l91 383q2 8 11 8h52q9 0 6 -8l-125 -521q-2 -9 -11 -9h-45q-8 0 -11 9l-82 374l-83 -374q-3 -9 -11 -9h-44q-9 0 -12 9l-124 521q-2 8 7 8h51q9 0 11 -8l91 -382l83 382q1 8 10 8h42z" />
    <glyph glyph-name="x" unicode="x" horiz-adv-x="359" 
d="M180 352l84 179q3 7 12 7h56q9 0 5 -7l-119 -248l133 -275q4 -8 -5 -8h-57q-9 0 -13 8l-97 205l-96 -205q-3 -8 -12 -8h-57q-9 0 -5 8l132 275l-119 248q-4 7 5 7h56q9 0 13 -7z" />
    <glyph glyph-name="y" unicode="y" horiz-adv-x="359" 
d="M140 0q-9 0 -11 9l-121 521q-3 8 6 8h51q9 0 12 -8l102 -459l106 459q2 8 11 8h51q9 0 6 -8l-116 -487h1l-25 -101q-25 -100 -112 -100q-24 0 -44 5l-20 4q-8 2 -7 10l10 38q2 8 6 8q1 0 1.5 -0.5t2.5 -0.5l12 -4q22 -5 33 -5q40 0 54 58l11 45h-20z" />
    <glyph glyph-name="z" unicode="z" horiz-adv-x="345" 
d="M324 9q0 -9 -9 -9h-277q-9 0 -9 9v30q0 17 9 37l201 405h-191q-8 0 -8 9v40q0 8 8 8h254q9 0 9 -8v-30q0 -19 -9 -37l-200 -405h213q9 0 9 -8v-41z" />
    <glyph glyph-name="braceleft" unicode="{" horiz-adv-x="376" 
d="M318 687q0 -12 -12 -12h-43q-32 0 -43.5 -15.5t-11.5 -50.5v-210q0 -58 -19.5 -79.5t-52.5 -29.5v-4q33 -7 52.5 -30.5t19.5 -79.5v-215q0 -34 11 -50t43 -16h44q12 0 12 -12v-35q0 -12 -12 -12h-52q-54 0 -84 27.5t-30 88.5v221q0 45 -18 65t-62 22q-11 0 -11 12v32
q0 11 11 12q80 4 80 86v219q0 60 30.5 87t81.5 27h54q12 0 12 -11v-37z" />
    <glyph glyph-name="bar" unicode="|" horiz-adv-x="230" 
d="M82 707q0 12 12 12h42q12 0 12 -12v-845q0 -12 -12 -12h-42q-12 0 -12 12v845z" />
    <glyph glyph-name="braceright" unicode="}" horiz-adv-x="385" 
d="M60 723q0 12 11 12h54q52 0 82.5 -27t30.5 -87v-219q0 -82 79 -86q12 -1 12 -13v-31q0 -12 -12 -12q-44 -2 -61.5 -22t-17.5 -65v-221q0 -62 -30 -89t-84 -27h-53q-11 0 -11 11v36q0 12 11 12h44q32 0 43 16t11 50v214q0 57 19.5 80.5t52.5 30.5v4q-32 8 -52 29.5
t-20 78.5v211q0 35 -11 50.5t-43 15.5h-44q-11 0 -11 12v36z" />
    <glyph glyph-name="asciitilde" unicode="~" horiz-adv-x="454" 
d="M49 286q-8 5 -4 14q40 85 113 85q48 0 75.5 -23.5t60.5 -23.5q34 0 58 47q3 6 6 6q2 0 6 -2l37 -19q8 -5 5 -13q-41 -89 -113 -89q-46 0 -74.5 24.5t-61.5 24.5q-20 0 -33 -13t-24 -33q-4 -6 -8 -6q-3 0 -6 2z" />
    <glyph glyph-name="exclamdown" unicode="&#xa1;" horiz-adv-x="333" 
d="M207 -167q0 -12 -12 -12h-59q-12 0 -12 12l19 515q1 12 12 12h21q12 0 12 -12zM121 529q0 9 8 9h73q9 0 9 -9v-73q0 -9 -9 -9h-73q-8 0 -8 9v73z" />
    <glyph glyph-name="cent" unicode="&#xa2;" horiz-adv-x="429" 
d="M305 164q0 10 10 10h57q10 0 10 -10v-33q0 -132 -132 -132v-100q0 -12 -12 -12h-46q-13 0 -13 12v100q-123 4 -123 132v277q0 128 123 132v100q0 13 13 13h46q12 0 12 -13v-100q132 0 132 -132v-33q0 -9 -10 -9h-57q-10 0 -10 9v33q0 39 -15 53.5t-54 14.5h-32
q-40 0 -54.5 -14.5t-14.5 -53.5v-276q0 -40 14.5 -54.5t54.5 -14.5h32q39 0 54 14.5t15 54.5v32z" />
    <glyph glyph-name="sterling" unicode="&#xa3;" horiz-adv-x="453" 
d="M12 374q0 12 12 12h67v164q0 148 148 148h35q149 0 149 -148v-70q0 -12 -12 -12h-50q-11 0 -11 12v72q0 45 -18.5 63.5t-63.5 18.5h-21q-45 0 -64 -18.5t-19 -63.5v-166h133q12 0 12 -12v-37q0 -12 -12 -12h-133v-261h246q12 0 12 -12v-40q0 -12 -12 -12h-379
q-12 0 -12 12v40q0 12 12 12h60v261h-67q-12 0 -12 12v37z" />
    <glyph glyph-name="currency" unicode="&#xa4;" horiz-adv-x="458" 
d="M63 214q-21 32 -31 62.5t-10 71.5q0 73 41 132l-32 31q-8 8 0 17l38 38q6 6 8 6q3 0 9 -6l32 -31q23 21 53 32t57 11t57.5 -10.5t53.5 -32.5l32 31q5 5 9 5t8 -5l37 -38q9 -8 0 -17l-31 -31q41 -61 41 -132q0 -75 -41 -134l31 -31q8 -9 0 -17l-37 -39q-5 -5 -8 -5
q-2 0 -9 5l-32 31q-50 -43 -110 -43q-65 0 -111 43l-32 -31q-7 -5 -9 -5q-1 0 -8 5l-38 39q-8 8 0 17zM228 516q-54 0 -95 -47t-41 -116q0 -66 38.5 -121t97.5 -55t98 53.5t39 113.5q0 75 -41 123.5t-96 48.5z" />
    <glyph glyph-name="yen" unicode="&#xa5;" horiz-adv-x="429" 
d="M189 0q-12 0 -12 12v154h-108q-11 0 -11 11v40q0 11 11 11h108v61h-139q-12 0 -12 12v39q0 12 12 12h115l-139 325q-5 10 7 10h54q12 0 16 -11l124 -296l123 296q5 11 16 11h54q12 0 8 -10l-139 -325h116q11 0 11 -12v-39q0 -12 -11 -12h-140v-61h108q11 0 11 -11v-40
q0 -11 -11 -11h-108v-154q0 -12 -12 -12h-52z" />
    <glyph glyph-name="brokenbar" unicode="&#xa6;" horiz-adv-x="229" 
d="M94 347q-12 0 -12 11v361q0 11 12 11h43q11 0 11 -11v-361q0 -11 -11 -11h-43zM94 -150q-12 0 -12 11v361q0 11 12 11h43q11 0 11 -11v-361q0 -11 -11 -11h-43z" />
    <glyph glyph-name="section" unicode="&#xa7;" horiz-adv-x="417" 
d="M285 580q-3 42 -19.5 69t-53.5 27q-30 0 -49 -19t-19 -53q0 -45 34 -70t75 -49.5t75 -60t34 -103.5q0 -59 -31 -95q14 -19 22.5 -43t8.5 -57q0 -75 -41.5 -105.5t-106.5 -30.5q-72 0 -114 36.5t-44 123.5q0 10 10 10h54q10 0 10 -10q5 -96 82 -96q33 0 53 18t20 54
q0 50 -34 76.5t-74.5 51.5t-74.5 58.5t-34 98.5q0 59 34 95q-15 18 -24.5 42t-9.5 56q0 73 43.5 104.5t100.5 31.5q74 0 109.5 -44.5t37.5 -115.5q0 -10 -10 -10h-54q-10 0 -10 10zM285 320q0 57 -41 83.5t-84 55.5q-16 -19 -16 -48q0 -27 12 -45.5t30.5 -33.5t41.5 -28
t44 -29q13 18 13 45z" />
    <glyph glyph-name="dieresis" unicode="&#xa8;" horiz-adv-x="289" 
d="M28 691q0 9 9 9h67q8 0 8 -9v-66q0 -9 -8 -9h-67q-9 0 -9 9v66zM177 691q0 9 9 9h67q8 0 8 -9v-66q0 -9 -8 -9h-67q-9 0 -9 9v66z" />
    <glyph glyph-name="copyright" unicode="&#xa9;" horiz-adv-x="696" 
d="M491 266q8 0 8 -8v-35q0 -124 -123 -124h-57q-123 0 -123 124v241q0 124 123 124h57q123 0 123 -124v-35q0 -8 -8 -8h-47q-8 0 -8 8v35q0 39 -15.5 54.5t-54.5 15.5h-35q-40 0 -55 -15.5t-15 -54.5v-241q0 -39 15 -54t55 -15h35q39 0 54.5 15t15.5 54v35q0 8 8 8h47z
M118 168q0 -42 3 -66t14.5 -36t35.5 -15t66 -3h222q42 0 66 3t35.5 15t14.5 36t3 66v352q0 42 -3 66t-14.5 36t-35.5 15t-66 3h-222q-42 0 -66 -3t-35.5 -15t-14.5 -36t-3 -66v-352zM63 543q0 83 30.5 113.5t113.5 30.5h281q83 0 113.5 -30.5t30.5 -113.5v-399
q0 -83 -30.5 -113.5t-113.5 -30.5h-281q-83 0 -113.5 30.5t-30.5 113.5v399z" />
    <glyph glyph-name="ordfeminine" unicode="&#xaa;" horiz-adv-x="315" 
d="M207 358q-6 0 -6 7v31q-49 -45 -99 -45q-67 0 -67 71v79q0 73 80 73q42 0 86 -17v71q0 25 -9 34.5t-35 9.5h-19q-26 0 -35 -9.5t-9 -34.5v-14q0 -7 -7 -7h-43q-7 0 -7 7v14q0 89 90 89h42q89 0 89 -89v-263q0 -7 -7 -7h-44zM201 516q-32 14 -78 14q-18 0 -24 -7t-6 -30
v-57q0 -38 28 -38q35 0 80 44v74zM44 258q-8 0 -8 9v28q0 9 8 9h205q9 0 9 -9v-28q0 -9 -9 -9h-205z" />
    <glyph glyph-name="guillemotleft" unicode="&#xab;" horiz-adv-x="378" 
d="M52 261q-3 8 0 16l71 178q3 8 13 8h40q8 0 6 -9l-63 -185l61 -185q2 -9 -6 -9h-41q-9 0 -12 9zM196 261q-3 8 0 16l72 178q2 8 12 8h40q8 0 6 -9l-63 -185l61 -185q2 -9 -6 -9h-41q-9 0 -12 9z" />
    <glyph glyph-name="logicalnot" unicode="&#xac;" horiz-adv-x="392" 
d="M295 308h-262q-12 0 -12 12v46q0 12 12 12h326q12 0 12 -12v-205q0 -12 -12 -12h-52q-12 0 -12 12v147z" />
    <glyph glyph-name="registered" unicode="&#xae;" horiz-adv-x="638" 
d="M574 380q0 -83 -30.5 -113.5t-113.5 -30.5h-223q-83 0 -113.5 30.5t-30.5 113.5v193q0 83 30.5 113.5t113.5 30.5h223q83 0 113.5 -30.5t30.5 -113.5v-193zM519 550q0 42 -3 66t-14.5 36t-35.5 15t-66 3h-163q-42 0 -66 -3t-35.5 -15t-14.5 -36t-3 -66v-146q0 -42 3 -66
t14.5 -36t35.5 -15t66 -3h163q42 0 66 3t35.5 15t14.5 36t3 66v146zM423 546q-29 0 -52.5 -5.5t-50.5 -16.5v-180q0 -8 -8 -8h-49q-9 0 -9 8v247q0 9 9 9h49q8 0 8 -9v-14q57 23 103 23q9 0 9 -8v-38q0 -8 -9 -8z" />
    <glyph glyph-name="macron" unicode="&#xaf;" horiz-adv-x="286" 
d="M25 675q0 9 9 9h218q9 0 9 -9v-36q0 -9 -9 -9h-218q-9 0 -9 9v36z" />
    <glyph glyph-name="degree" unicode="&#xb0;" horiz-adv-x="324" 
d="M310 590q0 -63 -44 -106.5t-106 -43.5t-106 44t-44 107q0 62 44 105.5t106 43.5t106 -44t44 -106zM66 590q0 -39 27.5 -66.5t66.5 -27.5q38 0 66 27.5t28 66.5q0 38 -28 66t-67 28q-38 0 -65.5 -28t-27.5 -66z" />
    <glyph glyph-name="plusminus" unicode="&#xb1;" horiz-adv-x="392" 
d="M29 44q0 10 10 10h315q10 0 10 -10v-48q0 -10 -10 -10h-315q-10 0 -10 10v48zM29 368q0 10 10 10h122v147q0 10 10 10h50q10 0 10 -10v-147h123q9 0 9 -10v-48q0 -10 -9 -10h-123v-148q0 -10 -10 -10h-50q-10 0 -10 10v148h-122q-10 0 -10 10v48z" />
    <glyph glyph-name="twosuperior" unicode="&#xb2;" horiz-adv-x="287" 
d="M29 737q0 101 101 101h36q101 0 101 -101v-17q0 -49 -28.5 -81.5t-63 -59t-63 -51t-28.5 -59.5v-25q0 -10 11 -10h168q9 0 9 -9v-33q0 -9 -9 -9h-195q-44 0 -44 46v40q0 49 28.5 80t63 56t63 51t28.5 64v17q0 49 -50 49h-18q-50 0 -50 -49v-34q0 -10 -9 -10h-41
q-10 0 -10 10v34z" />
    <glyph glyph-name="threesuperior" unicode="&#xb3;" horiz-adv-x="289" 
d="M125 595q-9 0 -9 9v29q0 9 9 9h17q49 0 49 49v47q0 49 -49 49h-7q-29 0 -39.5 -10.5t-10.5 -38.5v-35q0 -9 -9 -9h-41q-9 0 -9 9v35q0 100 100 100h26q101 0 101 -100v-42q0 -51 -27 -74q33 -25 33 -81v-59q0 -100 -100 -100h-37q-101 0 -101 100v35q0 9 9 9h41
q10 0 10 -9v-35q0 -49 49 -49h18q50 0 50 49v63q0 50 -50 50h-23z" />
    <glyph glyph-name="acute" unicode="&#xb4;" horiz-adv-x="278" 
d="M65 634q-3 5 2 9l156 112q5 3 7 3q3 0 6 -5l29 -49q3 -8 -4 -12l-169 -90q-2 -1 -4 -1q-4 0 -5 4z" />
    <glyph glyph-name="mu" unicode="&#xb5;" 
d="M305 530q0 8 9 8h53q9 0 9 -8v-521q0 -9 -9 -9h-53q-9 0 -9 9v51q-70 -69 -144 -69q-22 0 -35 4v-133q0 -12 -12 -12h-42q-12 0 -12 12v668q0 8 9 8h53q9 0 9 -8v-420q0 -35 9.5 -48t33.5 -13q35 0 65 20t66 59v402z" />
    <glyph glyph-name="paragraph" unicode="&#xb6;" horiz-adv-x="528" 
d="M349 622h-62v-610q0 -12 -12 -12h-39q-12 0 -12 12v309q-78 0 -118.5 53.5t-40.5 127.5q0 99 46.5 142t131.5 43h160q12 0 12 -12v-663q0 -12 -12 -12h-42q-12 0 -12 12v610z" />
    <glyph glyph-name="periodcentered" unicode="&#xb7;" horiz-adv-x="222" 
d="M66 305q0 9 9 9h73q8 0 8 -9v-73q0 -8 -8 -8h-73q-9 0 -9 8v73z" />
    <glyph glyph-name="cedilla" unicode="&#xb8;" horiz-adv-x="314" 
d="M121 -62q-4 8 -3 13l24 59h48l-17 -40q37 -2 54.5 -24.5t17.5 -52.5q0 -35 -22.5 -58t-67.5 -23q-40 0 -75 23q-6 5 -3 12l13 24q3 4 5 4l6 -2q24 -13 48 -13q39 0 39 36q0 37 -37 37q-11 0 -16 -1h-3q-7 0 -10 4z" />
    <glyph glyph-name="onesuperior" unicode="&#xb9;" horiz-adv-x="305" 
d="M137 770l-81 -38l-6 -2q-3 0 -3 8v47q0 10 9 13l73 35q10 4 17 4h49q9 0 9 -9v-435q0 -10 -9 -10h-48q-10 0 -10 10v377z" />
    <glyph glyph-name="ordmasculine" unicode="&#xba;" horiz-adv-x="306" 
d="M36 295q0 9 9 9h217q8 0 8 -9v-28q0 -9 -8 -9h-217q-9 0 -9 9v28zM168 402q26 0 35 9t9 35v181q0 26 -9 35t-35 9h-30q-26 0 -35 -9t-9 -35v-181q0 -26 9 -35t35 -9h30zM36 628q0 89 90 89h55q89 0 89 -89v-183q0 -89 -89 -89h-55q-90 0 -90 89v183z" />
    <glyph glyph-name="guillemotright" unicode="&#xbb;" horiz-adv-x="378" 
d="M113 84q-4 -9 -13 -9h-40q-9 0 -6 9l60 185l-62 185q-3 9 6 9h40q10 0 12 -8l72 -178q3 -8 0 -16zM257 84q-3 -9 -12 -9h-41q-8 0 -6 9l61 185l-63 185q-2 9 6 9h40q10 0 12 -8l72 -178q3 -8 0 -16z" />
    <glyph glyph-name="onequarter" unicode="&#xbc;" horiz-adv-x="713" 
d="M137 620l-81 -38l-6 -2q-3 0 -3 8v47q0 10 9 13l73 35q10 4 17 4h49q9 0 9 -9v-435q0 -10 -9 -10h-48q-10 0 -10 10v377zM507 687q12 0 8 -11l-256 -664q-5 -12 -18 -12h-34q-12 0 -8 12l256 664q4 11 17 11h35zM428 144q0 12 3 19l102 282q3 9 13 9h43q10 0 7 -9
l-105 -291h95v140q0 9 9 9h45q9 0 9 -9v-140h40q10 0 10 -10v-36q0 -10 -10 -10h-40v-88q0 -10 -9 -10h-45q-9 0 -9 10v88h-149q-9 0 -9 10v36z" />
    <glyph glyph-name="onehalf" unicode="&#xbd;" horiz-adv-x="700" 
d="M137 620l-81 -38l-6 -2q-3 0 -3 8v47q0 10 9 13l73 35q10 4 17 4h49q9 0 9 -9v-435q0 -10 -9 -10h-48q-10 0 -10 10v377zM480 687q12 0 8 -11l-256 -664q-5 -12 -18 -12h-34q-12 0 -8 12l256 664q4 11 17 11h35zM437 352q0 103 102 103h39q102 0 102 -103v-18
q0 -48 -28.5 -80.5t-62 -58t-62 -50t-28.5 -57.5v-22q0 -10 11 -10h164q10 0 10 -10v-36q0 -10 -10 -10h-195q-47 0 -47 47v41q0 48 28.5 79t62.5 56t62.5 50t28.5 61v18q0 47 -47 47h-17q-27 0 -37 -10.5t-10 -36.5v-31q0 -10 -10 -10h-46q-10 0 -10 10v31z" />
    <glyph glyph-name="threequarters" unicode="&#xbe;" horiz-adv-x="701" 
d="M126 443q-9 0 -9 10v30q0 10 9 10h17q48 0 48 47v46q0 47 -48 47h-6q-48 0 -48 -47v-32q0 -10 -9 -10h-45q-10 0 -10 10v32q0 103 102 103h29q102 0 102 -103v-41q0 -50 -25 -74q32 -24 32 -80v-57q0 -102 -103 -102h-39q-102 0 -102 102v33q0 9 9 9h46q10 0 10 -9v-32
q0 -27 10.5 -37t36.5 -10h17q26 0 36.5 10t10.5 37v61q0 47 -47 47h-24zM522 687q12 0 8 -11l-256 -664q-5 -12 -18 -12h-34q-12 0 -8 12l256 664q4 11 17 11h35zM416 144q0 12 3 19l102 282q3 9 13 9h43q10 0 7 -9l-105 -291h95v140q0 9 9 9h45q9 0 9 -9v-140h40
q10 0 10 -10v-36q0 -10 -10 -10h-40v-88q0 -10 -9 -10h-45q-9 0 -9 10v88h-149q-9 0 -9 10v36z" />
    <glyph glyph-name="questiondown" unicode="&#xbf;" horiz-adv-x="393" 
d="M203 -96q82 0 82 82v73q0 12 12 12h51q11 0 11 -12v-70q0 -149 -148 -149h-26q-149 0 -149 149v137q0 140 134 148v82q0 11 12 11h51q12 0 12 -11v-133q0 -12 -12 -12h-39q-82 0 -82 -82v-143q0 -82 82 -82h9zM253 456q0 -9 -9 -9h-73q-9 0 -9 9v73q0 9 9 9h73q9 0 9 -9
v-73z" />
    <glyph glyph-name="Aacute" unicode="&#xc1;" horiz-adv-x="472" 
d="M194 676q3 11 15 11h53q12 0 16 -11l180 -664q3 -12 -9 -12h-50q-12 0 -15 12l-48 178h-201l-48 -178q-3 -12 -15 -12h-50q-12 0 -8 12zM320 254l-84 312l-85 -312h169zM157 783q-3 5 2 9l156 112q5 3 7 3q3 0 6 -5l29 -49q3 -8 -4 -12l-169 -90q-2 -1 -4 -1q-4 0 -5 4z
" />
    <glyph glyph-name="Acircumflex" unicode="&#xc2;" horiz-adv-x="472" 
d="M194 676q3 11 15 11h53q12 0 16 -11l180 -664q3 -12 -9 -12h-50q-12 0 -15 12l-48 178h-201l-48 -178q-3 -12 -15 -12h-50q-12 0 -8 12zM320 254l-84 312l-85 -312h169zM248 879q8 0 14 -5l103 -79q7 -5 2 -11l-17 -28q-4 -5 -6 -5t-6 2l-102 62l-103 -62q-4 -2 -5 -2
q-3 0 -6 5l-18 28q-4 6 2 11l102 79q6 5 14 5h26z" />
    <glyph glyph-name="Aring" unicode="&#xc5;" horiz-adv-x="472" 
d="M22 0q-12 0 -8 12l176 648q-39 21 -39 76q0 38 21.5 62.5t63.5 24.5q44 0 65 -24.5t21 -62.5q0 -54 -39 -77l175 -647q3 -12 -9 -12h-50q-12 0 -15 12l-48 178h-201l-48 -178q-3 -12 -15 -12h-50zM151 254h169l-84 312zM199 736q0 -46 37 -46q38 0 38 46t-38 46
q-37 0 -37 -46z" />
    <glyph glyph-name="AE" unicode="&#xc6;" horiz-adv-x="685" 
d="M25 0q-13 0 -10 13l179 662q4 12 17 12h420q13 0 13 -12v-45q0 -13 -13 -13h-220v-232h205q12 0 12 -13v-45q0 -13 -12 -13h-205v-243h227q13 0 13 -13v-45q0 -13 -13 -13h-295q-16 0 -16 13v172h-183l-46 -172q-4 -13 -16 -13h-57zM327 617h-69l-97 -361h166v361z" />
    <glyph glyph-name="Ccedilla" unicode="&#xc7;" horiz-adv-x="514" 
d="M383 210q0 13 12 13h59q13 0 13 -13v-61q0 -151 -151 -151h-32l-12 -28q37 -2 55 -25t18 -53q0 -35 -23.5 -58.5t-69.5 -23.5q-42 0 -77 23q-7 5 -3 13l13 25q3 6 6 6q2 0 6 -3q28 -13 49 -13q38 0 38 35q0 36 -38 36q-10 0 -15 -1h-4q-6 0 -9 4l-1 2q-6 7 -3 14l18 47
h-18q-151 0 -151 151v390q0 150 151 150h102q151 0 151 -150v-63q0 -13 -13 -13h-59q-12 0 -12 13v64q0 44 -17.5 61.5t-61.5 17.5h-78q-44 0 -61.5 -17.5t-17.5 -61.5v-393q0 -43 17.5 -60.5t61.5 -17.5h78q44 0 61.5 17.5t17.5 60.5v63z" />
    <glyph glyph-name="Eacute" unicode="&#xc9;" horiz-adv-x="422" 
d="M71 675q0 12 12 12h287q12 0 12 -12v-40q0 -11 -12 -11h-223v-243h207q12 0 12 -12v-40q0 -11 -12 -11h-207v-254h229q12 0 12 -12v-40q0 -12 -12 -12h-293q-12 0 -12 12v663zM151 783q-3 5 2 9l156 112q5 3 7 3q3 0 6 -5l29 -49q3 -8 -4 -12l-169 -90q-2 -1 -4 -1
q-4 0 -5 4z" />
    <glyph glyph-name="Iacute" unicode="&#xcd;" horiz-adv-x="268" 
d="M40 624q-11 0 -11 11v40q0 12 11 12h188q12 0 12 -12v-40q0 -11 -12 -11h-56v-560h56q12 0 12 -12v-40q0 -12 -12 -12h-188q-11 0 -11 12v40q0 12 11 12h56v560h-56zM55 783q-3 5 2 9l156 112q5 3 7 3q3 0 6 -5l29 -49q3 -8 -4 -12l-169 -90q-2 -1 -4 -1q-4 0 -5 4z" />
    <glyph glyph-name="Eth" unicode="&#xd0;" horiz-adv-x="523" 
d="M459 148q0 -148 -148 -148h-228q-12 0 -12 12v663q0 12 12 12h228q148 0 148 -148v-391zM384 542q0 82 -82 82h-155v-244h144q11 0 11 -12v-41q0 -11 -11 -11h-144v-252h155q45 0 63.5 18.5t18.5 63.5v396z" />
    <glyph glyph-name="Ntilde" unicode="&#xd1;" horiz-adv-x="532" 
d="M71 675q0 12 12 12h53q12 0 16 -10l233 -514v512q0 12 12 12h51q12 0 12 -12v-663q0 -12 -12 -12h-52q-12 0 -17 11l-232 513v-512q0 -12 -12 -12h-52q-12 0 -12 12v663zM127 769q-6 4 -4 11q33 68 88 68q36 0 61 -18.5t51 -18.5q25 0 43 34q3 6 5 6q1 0 5 -2l29 -16
q7 -5 4 -11q-31 -69 -88 -69q-35 0 -60.5 18t-51.5 18q-24 0 -42 -33q-2 -5 -6 -5q-3 0 -5 2z" />
    <glyph glyph-name="Oacute" unicode="&#xd3;" horiz-adv-x="543" 
d="M63 544q0 148 149 148h120q148 0 148 -148v-401q0 -148 -148 -148h-120q-149 0 -149 148v401zM322 59q45 0 63.5 18.5t18.5 63.5v406q0 45 -18.5 63.5t-63.5 18.5h-101q-82 0 -82 -82v-406q0 -45 18.5 -63.5t63.5 -18.5h101zM193 783q-3 5 2 9l156 112q5 3 7 3q3 0 6 -5
l29 -49q3 -8 -4 -12l-169 -90q-2 -1 -4 -1q-4 0 -5 4z" />
    <glyph glyph-name="multiply" unicode="&#xd7;" horiz-adv-x="392" 
d="M94 476q6 7 9 7t9 -7l84 -84l85 84q6 7 9 7t9 -7l31 -31q9 -9 0 -18l-84 -84l84 -85q10 -9 0 -18l-29 -30q-6 -6 -10 -6q-2 0 -8 6l-85 85l-87 -86q-7 -7 -9 -7l-9 7l-31 31q-9 9 0 18l86 86l-84 85q-8 8 0 18z" />
    <glyph glyph-name="Oslash" unicode="&#xd8;" horiz-adv-x="550" 
d="M390 715q5 11 17 11h31q11 0 7 -11l-18 -46q54 -36 54 -125v-401q0 -148 -148 -148h-120q-26 0 -43 4l-10 -25q-5 -12 -17 -12h-30q-13 0 -8 12l16 42q-57 36 -57 127v401q0 148 149 148h120q27 0 46 -4zM140 141q0 -32 10 -51l206 536q-15 3 -33 3h-101q-82 0 -82 -82
v-406zM194 61q16 -2 28 -2h101q45 0 63.5 18.5t18.5 63.5v406q0 29 -7 46z" />
    <glyph glyph-name="Uacute" unicode="&#xda;" horiz-adv-x="511" 
d="M433 687q12 0 12 -12v-532q0 -149 -149 -149h-81q-148 0 -148 149v532q0 12 11 12h52q12 0 12 -12v-535q0 -82 82 -82h63q45 0 63.5 18.5t18.5 63.5v535q0 12 12 12h52zM177 783q-3 5 2 9l156 112q5 3 7 3q3 0 6 -5l29 -49q3 -8 -4 -12l-169 -90q-2 -1 -4 -1q-4 0 -5 4z
" />
    <glyph glyph-name="Udieresis" unicode="&#xdc;" horiz-adv-x="511" 
d="M433 687q12 0 12 -12v-532q0 -149 -149 -149h-81q-148 0 -148 149v532q0 12 11 12h52q12 0 12 -12v-535q0 -82 82 -82h63q45 0 63.5 18.5t18.5 63.5v535q0 12 12 12h52zM139 840q0 9 9 9h67q8 0 8 -9v-66q0 -9 -8 -9h-67q-9 0 -9 9v66zM288 840q0 9 9 9h67q8 0 8 -9v-66
q0 -9 -8 -9h-67q-9 0 -9 9v66z" />
    <glyph glyph-name="Thorn" unicode="&#xde;" horiz-adv-x="417" 
d="M89 0q-12 0 -12 12v663q0 12 12 12h52q12 0 12 -12v-137h85q148 0 148 -148v-93q0 -148 -148 -148h-85v-137q0 -12 -12 -12h-52zM310 393q0 45 -18.5 63.5t-63.5 18.5h-75v-262h75q45 0 63.5 18.5t18.5 63.5v98z" />
    <glyph glyph-name="germandbls" unicode="&#xdf;" horiz-adv-x="408" 
d="M232 56q0 12 12 12h17q44 0 61.5 17.5t17.5 61.5v99q0 43 -17.5 60.5t-61.5 17.5h-34q-13 0 -13 13v40q0 13 13 13h24q44 0 61.5 17.5t17.5 60.5v73q0 43 -17.5 60.5t-61.5 17.5h-22q-43 0 -60.5 -17.5t-17.5 -60.5v-531q0 -10 -10 -10h-62q-10 0 -10 10v529
q0 151 150 151h45q151 0 151 -151v-64q0 -76 -40 -114q50 -36 50 -122v-91q0 -150 -151 -150h-30q-12 0 -12 12v46z" />
    <glyph glyph-name="aacute" unicode="&#xe1;" horiz-adv-x="437" 
d="M314 0q-8 0 -8 9v50q-73 -69 -149 -69q-101 0 -101 107v121q0 109 104 109q78 0 146 -26v113q0 40 -15 55.5t-57 15.5h-34q-41 0 -57 -15.5t-16 -55.5v-23q0 -9 -9 -9h-51q-9 0 -9 9v23q0 129 129 129h60q129 0 129 -129v-405q0 -9 -9 -9h-53zM306 245q-29 14 -58 19.5
t-76 5.5q-26 0 -36 -11.5t-10 -46.5v-104q0 -34 10 -47t36 -13q59 0 134 78v119zM137 634q-3 5 2 9l156 112q5 3 7 3q3 0 6 -5l29 -49q3 -8 -4 -12l-169 -90q-2 -1 -4 -1q-4 0 -5 4z" />
    <glyph glyph-name="ae" unicode="&#xe6;" horiz-adv-x="696" 
d="M179 266q-26 0 -35.5 -12t-9.5 -47v-94q0 -34 9.5 -46.5t34.5 -12.5q55 0 127 73v115q-27 13 -55 18.5t-71 5.5zM305 126v-1v1zM384 297h180v111q0 39 -14.5 53.5t-53.5 14.5h-44q-39 0 -53.5 -14.5t-14.5 -53.5v-111zM384 236v-104q0 -40 14.5 -54.5t53.5 -14.5h45
q40 0 54.5 14.5t14.5 54.5v13q0 10 10 10h57q9 0 9 -10v-23q0 -123 -123 -123h-91q-91 0 -115 67q-79 -76 -157 -76q-101 0 -101 107v120q0 110 107 110q75 0 143 -26v107q0 39 -14.5 53.5t-54.5 14.5h-32q-39 0 -54.5 -14.5t-15.5 -53.5v-21q0 -10 -10 -10h-57
q-10 0 -10 10v21q0 132 133 132h62q57 0 90 -24q30 24 86 24h91q123 0 123 -123v-132q0 -32 -8 -40.5t-41 -8.5h-209z" />
    <glyph glyph-name="ccedilla" unicode="&#xe7;" horiz-adv-x="429" 
d="M305 164q0 10 10 10h57q10 0 10 -10v-33q0 -132 -133 -132h-7l-12 -29q37 -2 55 -25t18 -53q0 -35 -23.5 -58.5t-69.5 -23.5q-42 0 -77 23q-7 5 -3 13l13 25q3 6 6 6q2 0 6 -3q28 -13 49 -13q38 0 38 35q0 36 -38 36q-10 0 -15 -1h-4q-6 0 -9 4l-1 2q-6 7 -3 14l19 48h-3
q-132 0 -132 132v277q0 132 132 132h61q133 0 133 -132v-33q0 -9 -10 -9h-57q-10 0 -10 9v33q0 39 -15 53.5t-54 14.5h-32q-40 0 -54.5 -14.5t-14.5 -53.5v-276q0 -40 14.5 -54.5t54.5 -14.5h32q39 0 54 14.5t15 54.5v32z" />
    <glyph glyph-name="eacute" unicode="&#xe9;" horiz-adv-x="447" 
d="M393 285q0 -32 -8 -40.5t-41 -8.5h-209v-104q0 -40 14.5 -54.5t53.5 -14.5h45q40 0 54.5 14.5t14.5 54.5v13q0 10 10 10h57q9 0 9 -10v-23q0 -123 -123 -123h-91q-123 0 -123 123v295q0 123 123 123h91q123 0 123 -123v-132zM203 476q-39 0 -53.5 -14.5t-14.5 -53.5v-111
h180v111q0 39 -14.5 53.5t-53.5 14.5h-44zM174 603q-4 -2 -5 -2q-2 0 -5 5l-19 31q-4 6 2 10l157 112q5 3 7 3q3 0 6 -6l32 -53q4 -7 -5 -12z" />
    <glyph glyph-name="iacute" unicode="&#xed;" horiz-adv-x="208" 
d="M74 0q-9 0 -9 10v519q0 10 9 10h60q10 0 10 -10v-519q0 -10 -10 -10h-60zM24 637q-4 6 2 10l157 112q5 3 7 3q3 0 6 -6l32 -53q4 -7 -5 -12l-170 -88q-4 -2 -5 -2q-2 0 -5 5z" />
    <glyph glyph-name="eth" unicode="&#xf0;" horiz-adv-x="455" 
d="M62 503q-12 0 -12 12v25q0 148 149 148h62q53 0 85 -19l55 55q5 5 9 5t8 -5l23 -24q9 -7 0 -15l-54 -54q22 -36 22 -91v-393q0 -148 -148 -148h-68q-148 0 -148 148v126q0 148 148 148h68q44 0 73 -17v140q0 19 -3 32l-61 -61q-5 -5 -8 -5q-1 0 -8 5l-23 24q-9 7 0 16
l65 65q-18 6 -44 6h-45q-45 0 -63.5 -18.5t-18.5 -63.5v-29q0 -12 -12 -12h-51zM120 145q0 -45 18.5 -63.5t63.5 -18.5h50q45 0 63.5 18.5t18.5 63.5v132q0 82 -82 82h-50q-82 0 -82 -82v-132z" />
    <glyph glyph-name="ntilde" unicode="&#xf1;" horiz-adv-x="449" 
d="M327 0q-9 0 -9 9v421q0 36 -9.5 48.5t-36.5 12.5q-39 0 -69 -7.5t-68 -26.5v-448q0 -9 -9 -9h-53q-9 0 -9 9v521q0 8 9 8h53q9 0 9 -8v-17q77 36 146 36q108 0 108 -110v-430q0 -9 -9 -9h-53zM88 620q-6 4 -4 11q33 68 88 68q36 0 61 -18.5t51 -18.5q25 0 43 34q3 6 5 6
q1 0 5 -2l29 -16q7 -5 4 -11q-31 -69 -88 -69q-35 0 -60.5 18t-51.5 18q-24 0 -42 -33q-2 -5 -6 -5q-3 0 -5 2z" />
    <glyph glyph-name="oacute" unicode="&#xf3;" horiz-adv-x="450" 
d="M252 53q40 0 55.5 15.5t15.5 56.5v289q0 40 -15.5 55.5t-55.5 15.5h-54q-40 0 -55.5 -15.5t-15.5 -55.5v-289q0 -41 15.5 -56.5t55.5 -15.5h54zM56 414q0 129 130 129h78q130 0 130 -129v-290q0 -129 -130 -129h-78q-130 0 -130 129v290zM146 634q-3 5 2 9l156 112
q5 3 7 3q3 0 6 -5l29 -49q3 -8 -4 -12l-169 -90q-2 -1 -4 -1q-4 0 -5 4z" />
    <glyph glyph-name="divide" unicode="&#xf7;" horiz-adv-x="489" 
d="M53 368q0 10 10 10h363q9 0 9 -10v-48q0 -10 -9 -10h-363q-10 0 -10 10v48zM196 215q0 10 10 10h76q10 0 10 -10v-76q0 -10 -10 -10h-76q-10 0 -10 10v76zM196 550q0 10 10 10h76q10 0 10 -10v-76q0 -10 -10 -10h-76q-10 0 -10 10v76z" />
    <glyph glyph-name="oslash" unicode="&#xf8;" horiz-adv-x="457" 
d="M105 19q-49 30 -49 112v277q0 132 132 132h81q20 0 36 -3l17 45q4 11 17 11h30q12 0 8 -11l-24 -62q48 -31 48 -112v-277q0 -132 -132 -132h-81q-19 0 -36 3l-17 -45q-4 -12 -17 -12h-30q-12 0 -7 12zM135 132q0 -13 2 -29l143 371q-14 2 -26 2h-51q-39 0 -53.5 -14.5
t-14.5 -53.5v-276zM177 65q14 -2 26 -2h51q39 0 53.5 14.5t14.5 54.5v276q0 11 -2 27z" />
    <glyph glyph-name="uacute" unicode="&#xfa;" 
d="M305 530q0 8 9 8h53q9 0 9 -8v-521q0 -9 -9 -9h-53q-9 0 -9 9v51q-70 -69 -144 -69q-101 0 -101 107v432q0 8 9 8h53q9 0 9 -8v-420q0 -35 9.5 -48t33.5 -13q35 0 65 20t66 59v402zM139 634q-3 5 2 9l156 112q5 3 7 3q3 0 6 -5l29 -49q3 -8 -4 -12l-169 -90q-2 -1 -4 -1
q-4 0 -5 4z" />
    <glyph glyph-name="udieresis" unicode="&#xfc;" 
d="M305 530q0 8 9 8h53q9 0 9 -8v-521q0 -9 -9 -9h-53q-9 0 -9 9v51q-70 -69 -144 -69q-101 0 -101 107v432q0 8 9 8h53q9 0 9 -8v-420q0 -35 9.5 -48t33.5 -13q35 0 65 20t66 59v402zM101 691q0 9 9 9h67q8 0 8 -9v-66q0 -9 -8 -9h-67q-9 0 -9 9v66zM250 691q0 9 9 9h67
q8 0 8 -9v-66q0 -9 -8 -9h-67q-9 0 -9 9v66z" />
    <glyph glyph-name="thorn" unicode="&#xfe;" 
d="M82 -150q-12 0 -12 12v868q0 12 12 12h47q11 0 11 -12v-190h115q129 0 129 -130v-282q0 -129 -129 -129h-115v-137q0 -12 -11 -12h-47zM313 410q0 41 -15 56t-56 15h-102v-424h102q41 0 56 15.5t15 55.5v282z" />
    <glyph glyph-name="OE" unicode="&#x152;" horiz-adv-x="760" 
d="M214 0q-151 0 -151 151v386q0 150 151 150h122q40 0 67 -10q0 10 13 10h291q13 0 13 -12v-45q0 -13 -13 -13h-220v-232h205q12 0 12 -13v-45q0 -13 -12 -13h-205v-243h227q13 0 13 -13v-45q0 -13 -13 -13h-298q-13 0 -13 10q-27 -10 -67 -10h-122zM147 149
q0 -43 17.5 -60.5t61.5 -17.5h98q44 0 61.5 17.5t17.5 60.5v389q0 44 -17.5 61.5t-61.5 17.5h-98q-44 0 -61.5 -17.5t-17.5 -61.5v-389z" />
    <glyph glyph-name="oe" unicode="&#x153;" horiz-adv-x="714" 
d="M322 408q0 39 -14.5 53.5t-53.5 14.5h-51q-39 0 -53.5 -14.5t-14.5 -53.5v-276q0 -40 14.5 -54.5t53.5 -14.5h51q39 0 53.5 14.5t14.5 54.5v276zM401 297h181v111q0 39 -14.5 53.5t-54.5 14.5h-43q-40 0 -54.5 -14.5t-14.5 -53.5v-111zM401 236v-104q0 -40 14.5 -54.5
t54.5 -14.5h45q40 0 54.5 14.5t14.5 54.5v13q0 10 9 10h57q10 0 10 -10v-23q0 -123 -123 -123h-92q-54 0 -86 27q-35 -27 -90 -27h-81q-132 0 -132 132v277q0 132 132 132h81q59 0 90 -27q30 27 86 27h92q123 0 123 -123v-171q0 -10 -10 -10h-249z" />
    <glyph glyph-name="scaron" unicode="&#x161;" horiz-adv-x="386" 
d="M275 133q0 49 -34.5 74.5t-76.5 49.5t-76.5 59t-34.5 104q0 123 131 123h30q129 0 129 -129v-38q0 -9 -9 -9h-50q-9 0 -9 9v38q0 41 -15.5 56t-55.5 15h-9q-42 0 -57.5 -13.5t-15.5 -51.5q0 -51 35 -77t76.5 -50.5t76.5 -58.5t35 -101q0 -138 -129 -138h-46
q-129 0 -129 129v39q0 9 9 9h50q9 0 9 -9v-38q0 -41 15.5 -56.5t55.5 -15.5h24q41 0 56 17t15 63zM143 606q-7 0 -15 5l-110 79q-6 5 -2 12l18 27q3 5 5 5q3 0 6 -2l111 -62l111 62q2 2 6 2q3 0 5 -5l18 -27q3 -7 -2 -12l-110 -79q-7 -5 -15 -5h-26z" />
    <glyph glyph-name="Ydieresis" unicode="&#x178;" horiz-adv-x="419" 
d="M172 295l-163 382q-5 10 7 10h54q12 0 16 -11l124 -296l123 296q5 11 16 11h54q12 0 8 -10l-163 -382v-283q0 -12 -12 -12h-52q-12 0 -12 12v283zM92 840q0 9 9 9h67q8 0 8 -9v-66q0 -9 -8 -9h-67q-9 0 -9 9v66zM241 840q0 9 9 9h67q8 0 8 -9v-66q0 -9 -8 -9h-67
q-9 0 -9 9v66z" />
    <glyph glyph-name="Zcaron" unicode="&#x17d;" horiz-adv-x="403" 
d="M48 624q-12 0 -12 12v39v2l-18 13q-6 5 -2 12l18 27q3 5 5 5q3 0 6 -2l81 -45h60l81 45q2 2 6 2q3 0 5 -5l18 -27q3 -7 -2 -12l-4 -3h71q12 0 12 -12v-28q0 -22 -10 -39l-259 -544h262q12 0 12 -12v-40q0 -12 -12 -12h-329q-12 0 -12 12v30q0 24 9 39l259 543h-91
l-18 -13q-7 -5 -15 -5h-26q-7 0 -15 5l-18 13h-62z" />
    <glyph glyph-name="florin" unicode="&#x192;" horiz-adv-x="446" 
d="M252 393l-56 -409q-10 -69 -38.5 -118t-110.5 -49q-13 0 -19 1q-11 1 -9 12l6 38q1 10 12 10q38 0 56 26t25 80l55 409h-69q-11 0 -10 12l5 31q2 12 14 12h68q3 35 10.5 78.5t24 81.5t45.5 64t75 26q22 0 43 -7q10 -3 10 -15v-37q0 -9 -5 -9q-3 0 -6 1q-18 3 -33 3
q-40 0 -56.5 -45t-29.5 -141h81q11 0 9 -12l-5 -31q-1 -12 -13 -12h-79z" />
    <glyph glyph-name="circumflex" unicode="&#x2c6;" horiz-adv-x="312" 
d="M168 730q8 0 14 -5l103 -79q7 -5 2 -11l-17 -28q-4 -5 -6 -5t-6 2l-102 62l-103 -62q-4 -2 -5 -2q-3 0 -6 5l-18 28q-4 6 2 11l102 79q6 5 14 5h26z" />
    <glyph glyph-name="tilde" unicode="&#x2dc;" horiz-adv-x="300" 
d="M11 618q-6 4 -4 11q33 68 88 68q36 0 61 -18.5t51 -18.5q25 0 43 34q3 6 5 6q1 0 5 -2l29 -16q7 -5 4 -11q-31 -69 -88 -69q-35 0 -60.5 18t-51.5 18q-24 0 -42 -33q-2 -5 -6 -5q-3 0 -5 2z" />
    <glyph glyph-name="endash" unicode="&#x2013;" horiz-adv-x="462" 
d="M462 249q0 -11 -11 -11h-440q-11 0 -11 11v41q0 12 11 12h440q11 0 11 -12v-41z" />
    <glyph glyph-name="emdash" unicode="&#x2014;" horiz-adv-x="935" 
d="M0 290q0 12 11 12h912q11 0 11 -12v-41q0 -11 -11 -11h-912q-11 0 -11 11v41z" />
    <glyph glyph-name="quoteleft" unicode="&#x2018;" horiz-adv-x="222" 
d="M151 544q0 -10 -9 -10h-83q-9 0 -7 9l42 180q2 7 9 7h41q7 0 7 -7v-179z" />
    <glyph glyph-name="quoteright" unicode="&#x2019;" horiz-adv-x="222" 
d="M54 720q0 10 10 10h82q9 0 8 -9l-43 -180q-1 -7 -9 -7h-41q-7 0 -7 7v179z" />
    <glyph glyph-name="quotesinglbase" unicode="&#x201a;" horiz-adv-x="227" 
d="M58 74q0 10 9 10h83q10 0 7 -10l-42 -180q-2 -7 -9 -7h-41q-7 0 -7 7v180z" />
    <glyph glyph-name="quotedblleft" unicode="&#x201c;" horiz-adv-x="403" 
d="M151 544q0 -10 -9 -10h-83q-9 0 -7 9l42 180q2 7 9 7h41q7 0 7 -7v-179zM312 544q0 -10 -9 -10h-83q-9 0 -7 9l42 180q2 7 9 7h41q7 0 7 -7v-179z" />
    <glyph glyph-name="quotedblright" unicode="&#x201d;" horiz-adv-x="403" 
d="M54 720q0 10 10 10h82q9 0 8 -9l-43 -180q-1 -7 -9 -7h-41q-7 0 -7 7v179zM212 720q0 10 10 10h82q10 0 8 -9l-43 -180q-1 -7 -8 -7h-42q-7 0 -7 7v179z" />
    <glyph glyph-name="quotedblbase" unicode="&#x201e;" horiz-adv-x="407" 
d="M58 74q0 10 9 10h83q10 0 7 -10l-42 -180q-2 -7 -9 -7h-41q-7 0 -7 7v180zM216 74q0 10 10 10h82q9 0 8 -10l-43 -180q-1 -7 -9 -7h-41q-7 0 -7 7v180z" />
    <glyph glyph-name="dagger" unicode="&#x2020;" horiz-adv-x="344" 
d="M136 538v138q0 11 12 11h49q11 0 11 -11v-138h79q11 0 11 -11v-43q0 -11 -11 -11h-79v-462q0 -11 -11 -11h-49q-12 0 -12 11v462h-79q-11 0 -11 11v43q0 11 11 11h79z" />
    <glyph glyph-name="daggerdbl" unicode="&#x2021;" horiz-adv-x="344" 
d="M136 538v138q0 11 12 11h49q11 0 11 -11v-138h79q11 0 11 -11v-43q0 -11 -11 -11h-79v-258h79q11 0 11 -11v-43q0 -11 -11 -11h-79v-139q0 -11 -11 -11h-49q-12 0 -12 11v139h-79q-11 0 -11 11v43q0 11 11 11h79v258h-79q-11 0 -11 11v43q0 11 11 11h79z" />
    <glyph glyph-name="bullet" unicode="&#x2022;" horiz-adv-x="421" 
d="M315 269q0 -46 -28.5 -79.5t-75.5 -33.5q-48 0 -76.5 33.5t-28.5 79.5q0 47 28.5 80t76.5 33q47 0 75.5 -33t28.5 -80z" />
    <glyph glyph-name="guilsinglleft" unicode="&#x2039;" horiz-adv-x="202" 
d="M38 261q-3 8 0 16l71 178q3 8 13 8h40q8 0 6 -9l-63 -185l61 -185q2 -9 -6 -9h-41q-9 0 -12 9z" />
    <glyph glyph-name="guilsinglright" unicode="&#x203a;" horiz-adv-x="202" 
d="M95 84q-3 -9 -12 -9h-41q-8 0 -6 9l61 185l-63 185q-2 9 6 9h40q10 0 12 -8l72 -178q3 -8 0 -16z" />
    <glyph glyph-name="fraction" unicode="&#x2044;" horiz-adv-x="95" 
d="M194 687q11 0 7 -10l-256 -666q-5 -11 -16 -11h-33q-10 0 -7 11l256 666q5 10 16 10h33z" />
    <glyph glyph-name="uni20AA" unicode="&#x20aa;" horiz-adv-x="651" 
d="M222 466q0 10 11 10h44q10 0 10 -10v-406h195q23 0 23 23v594q0 10 11 10h54q10 0 10 -10v-607q0 -32 -19 -51t-50 -19h-278q-11 0 -11 10v456zM70 677q0 10 11 10h278q32 0 51 -19t19 -51v-395q0 -11 -11 -11h-44q-10 0 -10 11v382q0 23 -24 23h-195v-617q0 -10 -10 -10
h-54q-11 0 -11 10v667z" />
    <glyph glyph-name="Euro" unicode="&#x20ac;" horiz-adv-x="505" 
d="M11 371q-11 0 -11 12v31q0 12 11 12h52v119q0 148 149 148h98q148 0 148 -148v-69q0 -12 -12 -12h-51q-12 0 -12 12v71q0 45 -18.5 63.5t-63.5 18.5h-80q-45 0 -63.5 -18.5t-18.5 -63.5v-121h187q12 0 12 -12v-31q0 -12 -12 -12h-187v-60h187q12 0 12 -11v-32
q0 -11 -12 -11h-187v-118q0 -82 82 -82h80q82 0 82 82v70q0 12 12 12h51q12 0 12 -12v-67q0 -149 -148 -149h-98q-149 0 -149 149v115h-52q-11 0 -11 11v32q0 11 11 11h52v60h-52z" />
    <glyph glyph-name="uni20BD" unicode="&#x20bd;" 
d="M316 259q11 0 11 -11v-38q0 -11 -11 -11h-169v-187q0 -12 -12 -12h-52q-12 0 -12 12v187h-62q-11 0 -11 11v38q0 11 11 11h62v416q0 12 12 12h184q149 0 149 -148v-88q0 -149 -149 -149h-120v-43h169zM340 542q0 45 -18.5 63.5t-63.5 18.5h-111v-258h111q45 0 63.5 18.5
t18.5 63.5v94z" />
    <glyph glyph-name="trademark" unicode="&#x2122;" horiz-adv-x="669" 
d="M440 294q-9 0 -11 7l-80 254v-255q0 -10 -9 -10h-43q-10 0 -10 10v408q0 9 10 9h47q9 0 12 -9l105 -335l106 335q2 9 11 9h48q8 0 8 -9v-408q0 -10 -8 -10h-44q-8 0 -8 10v255l-80 -254q-3 -7 -11 -7h-43zM252 717q9 0 9 -8v-34q0 -9 -9 -9h-88v-366q0 -10 -9 -10h-43
q-9 0 -9 10v366h-87q-9 0 -9 9v34q0 8 9 8h236z" />
    </font>
</defs>
</svg>
